<svg width="122" height="100" viewBox="0 0 122 100" fill="none" xmlns="http://www.w3.org/2000/svg">
<g clip-path="url(#clip0)">
<path d="M62.7456 1.49255V30.1541L55.6132 48.4398L43.9762 39.5935L54.7015 1.50134L62.7456 1.49255Z" fill="#5D734F"/>
<path d="M55.6132 48.4398L49.9664 62.9146C49.9664 61.8376 1.28433 51.4773 1.28433 51.4773V1.55833L54.7015 1.5011V39.5935C54.7015 42.831 54.9991 45.7716 55.6132 48.4398Z" fill="#7D9062"/>
<path d="M119.431 88.6991L111.387 89.3518L46.8025 63.376L54.7015 30.1563C54.7284 30.1542 54.7577 30.1542 54.7847 30.1542H62.7454V39.5938C62.7454 58.1829 73.6932 62.5256 94.4492 65.2796C110.106 67.3563 119.431 75.6991 119.431 88.6991Z" fill="#9CAC74"/>
<path d="M111.387 88.6991V89.3518L65.3813 93.0815L23.4025 83.563L1.28433 59.3761V51.4772H37.104C39.7532 51.4772 41.9222 49.7014 41.9222 47.53V34.1036C41.9222 31.9542 44.0432 30.1915 46.6574 30.1563L54.7844 30.1542L54.7013 39.5938C54.7013 50.5983 58.1549 58.1542 65.5714 63.3762C72.8807 68.5214 83.1527 70.4598 93.1648 71.7895C105.255 73.3915 111.387 79.0815 111.387 88.6991Z" fill="#BCC987"/>
<path d="M31.3392 93.0818V96.8591C31.3392 97.7697 32.2397 98.5076 33.3503 98.5076C34.461 98.5076 35.3614 97.7697 35.3614 96.8591V95.2798L31.3392 93.0818Z" fill="#FEC45E"/>
<path d="M1.28433 95.2796V96.8589C1.28433 97.7694 2.1848 98.5073 3.29543 98.5073C4.40606 98.5073 5.30652 97.7694 5.30652 96.8589V93.0815L1.28433 95.2796Z" fill="#FEC45E"/>
<path d="M8.79807 93.0818V96.8591C8.79807 97.7697 9.69853 98.5076 10.8092 98.5076C11.9198 98.5076 12.8203 97.7697 12.8203 96.8591V93.0818H8.79807Z" fill="#FEC45E"/>
<path d="M16.3118 93.0818V96.8591C16.3118 97.7697 17.2122 98.5076 18.3229 98.5076C19.4335 98.5076 20.334 97.7697 20.334 96.8591V93.0818H16.3118Z" fill="#FEC45E"/>
<path d="M23.8255 93.0818V96.8591C23.8255 97.7697 24.726 98.5076 25.8366 98.5076C26.9472 98.5076 27.8477 97.7697 27.8477 96.8591V93.0818H23.8255Z" fill="#FEC45E"/>
<path d="M23.4025 69.6423V81.3653H1.28433V59.3765H10.878C17.7958 59.3765 23.4025 63.972 23.4025 69.6423Z" fill="#5D734F"/>
<path d="M117.978 93.082V96.8594C117.978 97.7699 118.879 98.5078 119.989 98.5078C121.1 98.5078 122 97.7699 122 96.8594V95.2801L117.978 93.082Z" fill="#FEC45E"/>
<path d="M87.9232 95.2798V96.8591C87.9232 97.7697 88.8236 98.5076 89.9342 98.5076C91.0449 98.5076 91.9453 97.7697 91.9453 96.8591V93.0818L87.9232 95.2798Z" fill="#FEC45E"/>
<path d="M95.4366 93.082V96.8594C95.4366 97.7699 96.3371 98.5078 97.4477 98.5078C98.5584 98.5078 99.4588 97.7699 99.4588 96.8594V93.082H95.4366Z" fill="#FEC45E"/>
<path d="M102.951 93.082V96.8594C102.951 97.7699 103.851 98.5078 104.962 98.5078C106.072 98.5078 106.973 97.7699 106.973 96.8594V93.082H102.951Z" fill="#FEC45E"/>
<path d="M110.464 93.082V96.8594C110.464 97.7699 111.365 98.5078 112.475 98.5078C113.586 98.5078 114.486 97.7699 114.486 96.8594V93.082H110.464Z" fill="#FEC45E"/>
<path d="M65.3818 95.2798V96.8591C65.3818 97.7697 66.2822 98.5076 67.3929 98.5076C68.5035 98.5076 69.404 97.7697 69.404 96.8591V93.0818L65.3818 95.2798Z" fill="#FEC45E"/>
<path d="M72.8957 93.082V96.8594C72.8957 97.7699 73.7962 98.5078 74.9068 98.5078C76.0174 98.5078 76.9179 97.7699 76.9179 96.8594V93.082H72.8957Z" fill="#FEC45E"/>
<path d="M80.4092 93.082V96.8594C80.4092 97.7699 81.3097 98.5078 82.4203 98.5078C83.5309 98.5078 84.4314 97.7699 84.4314 96.8594V93.082H80.4092Z" fill="#FEC45E"/>
<path d="M122 88.6992V95.2795H114.487L109.124 91.8859L114.487 88.6992H122Z" fill="#FEC45E"/>
<path d="M114.487 88.699V95.2793H65.3813L35.3612 87.9474V95.2793H1.28434L0 81.365H35.3612L65.3813 88.699H114.487Z" fill="#FCDB5A"/>
</g>
<defs>
<clipPath id="clip0">
<rect width="122" height="100" fill="white"/>
</clipPath>
</defs>
</svg>
