<svg width="45" height="45" viewBox="0 0 45 45" fill="none" xmlns="http://www.w3.org/2000/svg">
<g clip-path="url(#clip0)">
<path d="M22.5 45.0001C34.9265 45.0001 45.0001 34.9265 45.0001 22.5C45.0001 10.0736 34.9265 0 22.5 0C10.0736 0 0 10.0736 0 22.5C0 34.9265 10.0736 45.0001 22.5 45.0001Z" fill="#FEC45E"/>
<path d="M22.5 40.9256C32.6762 40.9256 40.9255 32.6763 40.9255 22.5002C40.9255 12.3241 32.6762 4.07471 22.5 4.07471C12.3239 4.07471 4.07458 12.3241 4.07458 22.5002C4.07458 32.6763 12.3239 40.9256 22.5 40.9256Z" fill="#FCFCFD"/>
<path d="M22.5 24.118C21.6012 24.118 20.8822 23.3989 20.8822 22.5001V10.2165C20.8822 9.3177 21.6012 8.59863 22.5 8.59863C23.3988 8.59863 24.1179 9.3177 24.1179 10.2165V22.5001C24.1179 23.3989 23.3988 24.118 22.5 24.118Z" fill="#4F5565"/>
<path d="M24.1179 22.3804V22.65C24.1179 23.4889 23.4587 24.1481 22.6198 24.1481H12.4334C11.5945 24.1481 10.9354 23.4889 10.9354 22.65V22.3804C10.9354 21.5415 11.5945 20.8823 12.4334 20.8823H22.6198C23.4587 20.8824 24.1179 21.5415 24.1179 22.3804Z" fill="#4F5565"/>
<path d="M23.2491 5.00342H21.781V7.01075H23.2491V5.00342Z" fill="#646B79"/>
<path d="M23.2491 37.9897H21.781V39.9971H23.2491V37.9897Z" fill="#646B79"/>
<path d="M39.9967 21.7812H37.9894V23.2493H39.9967V21.7812Z" fill="#646B79"/>
<path d="M7.01066 21.7812H5.00333V23.2493H7.01066V21.7812Z" fill="#646B79"/>
<path d="M22.5001 26.1552C24.5187 26.1552 26.1552 24.5188 26.1552 22.5001C26.1552 20.4814 24.5187 18.845 22.5001 18.845C20.4814 18.845 18.8449 20.4814 18.8449 22.5001C18.8449 24.5188 20.4814 26.1552 22.5001 26.1552Z" fill="#646B79"/>
<path d="M22.5001 24.118C23.3936 24.118 24.1179 23.3937 24.1179 22.5002C24.1179 21.6067 23.3936 20.8823 22.5001 20.8823C21.6065 20.8823 20.8822 21.6067 20.8822 22.5002C20.8822 23.3937 21.6065 24.118 22.5001 24.118Z" fill="#FF7058"/>
</g>
<defs>
<clipPath id="clip0">
<rect width="45" height="45" fill="white"/>
</clipPath>
</defs>
</svg>
