<svg width="125" height="138" viewBox="0 0 125 138" fill="none" xmlns="http://www.w3.org/2000/svg">
<g clip-path="url(#clip0)">
<path d="M34.9709 120.807V96.7547H32.6338C28.6694 96.7547 25.4441 93.1939 25.4441 88.817H25.2V120.807H34.9709Z" fill="#EA9B58"/>
<path d="M30.1562 120.807V96.2688C27.4089 95.1518 25.4441 92.2331 25.4441 88.817H25.2V120.807H30.1562Z" fill="#C57A44"/>
<path d="M86.3984 96.7546H96.1697V120.807H86.3984V96.7546Z" fill="#D88A55"/>
<path d="M86.3984 96.7546H91.355V120.807H86.3984V96.7546Z" fill="#C57A44"/>
<path d="M86.3984 114.009H96.1697V120.807H86.3984V114.009Z" fill="#32569D"/>
<path d="M86.3984 114.009H91.355V120.807H86.3984V114.009Z" fill="#303A78"/>
<path d="M32.6338 97.0243H42.2639C43.6326 97.0243 44.7419 98.249 44.7419 99.76V120.807H54.5132V99.76C54.5132 98.249 55.6226 97.0243 56.9912 97.0243H103.463C104.831 97.0243 105.941 98.249 105.941 99.76V120.807H115.712V49.4485C115.712 38.8721 107.946 30.2983 98.3657 30.2983H60.8538C59.1216 32.6214 56.5017 34.0508 53.6865 34.0508C52.7134 34.0508 51.7488 33.8815 50.8201 33.5478L50.5002 33.433V47.4483C50.5002 51.3533 49.5125 55.1772 47.644 58.5061L47.5874 58.6069L47.6165 58.721C47.833 59.5735 47.9429 60.4505 47.9429 61.3276V62.3914C47.9429 67.7524 43.9922 72.1137 39.1365 72.1137H25.2V88.8171C25.1997 93.3498 28.5281 97.0243 32.6338 97.0243Z" fill="#EA9B58"/>
<path d="M32.6345 88.817V72.1136H25.1997V88.817C25.1997 93.3497 28.5281 97.0243 32.6338 97.0243H40.0686C35.9629 97.0243 32.6345 93.3497 32.6345 88.817Z" fill="#D88A55"/>
<path d="M23.4661 24.0891V16.9387C23.4661 15.0032 22.0315 13.4194 20.2783 13.4194H19.939C18.1858 13.4194 16.7512 15.0032 16.7512 16.9387V24.0891H23.4661Z" fill="#EDCAB2"/>
<path d="M46.009 24.0891V16.9387C46.009 15.0032 44.5745 13.4194 42.8213 13.4194H42.4819C40.7288 13.4194 39.2942 15.0032 39.2942 16.9387V24.0891H46.009Z" fill="#EDCAB2"/>
<path d="M60.2712 23.8196H50.5005V33.7143C51.4968 34.1054 52.5688 34.32 53.6868 34.32C57.7769 34.32 61.2639 31.47 62.6074 27.4706C63.2024 25.6993 61.9827 23.8196 60.2712 23.8196Z" fill="#F6A96C"/>
<path d="M12.2598 23.8196H2.48901C0.777342 23.8196 -0.442384 25.6993 0.152831 27.4709C1.49634 31.4702 4.9834 34.3202 9.07348 34.3202C10.1914 34.3202 11.2634 34.1057 12.2598 33.7146V23.8196Z" fill="#F6A96C"/>
<path d="M5.10937 27.4709C4.51416 25.6993 5.73388 23.8196 7.44555 23.8196H2.48901C0.777342 23.8196 -0.442384 25.6993 0.152831 27.4709C1.49634 31.4702 4.9834 34.3202 9.07348 34.3202C9.93066 34.3202 10.7605 34.193 11.5505 33.9583C8.57202 33.0726 6.17114 30.6314 5.10937 27.4709Z" fill="#EA9B58"/>
<path d="M12.0156 23.8196V47.4483C12.0156 51.6759 13.1467 55.6235 15.0847 58.9506C16.0479 54.7351 19.5105 51.6053 23.6238 51.6053H39.1367C43.25 51.6053 46.7126 54.7351 47.6758 58.9503C49.6138 55.6232 50.7446 51.6756 50.7446 47.448V23.8196H12.0156Z" fill="#D88A55"/>
<path d="M19.998 52.471C19.6426 50.8584 19.4502 49.1773 19.4502 47.4483V23.8196H12.0156V47.4483C12.0156 51.6759 13.1467 55.6235 15.0845 58.9506C15.7451 56.0593 17.5823 53.6812 19.998 52.471Z" fill="#C57A44"/>
<path d="M23.1602 45.1503C22.1487 45.1503 21.3291 44.2452 21.3291 43.1288V39.0037C21.3291 37.8873 22.1487 36.9822 23.1602 36.9822C24.1716 36.9822 24.9912 37.8873 24.9912 39.0037V43.1288C24.9912 44.2452 24.1716 45.1503 23.1602 45.1503Z" fill="#303A78"/>
<path d="M39.5996 45.1503C38.5881 45.1503 37.7686 44.2452 37.7686 43.1288V39.0037C37.7686 37.8873 38.5881 36.9822 39.5996 36.9822C40.6111 36.9822 41.4307 37.8873 41.4307 39.0037V43.1288C41.4307 44.2452 40.6111 45.1503 39.5996 45.1503Z" fill="#303A78"/>
<path d="M39.1365 72.3832H23.6235C18.6458 72.3832 14.573 67.8869 14.573 62.3915V61.3276C14.573 55.8321 18.6458 51.3358 23.6235 51.3358H39.1365C44.1143 51.3358 48.187 55.8321 48.187 61.3276V62.3915C48.187 67.8869 44.1143 72.3832 39.1365 72.3832Z" fill="#F5E2D4"/>
<path d="M20.0251 62.2405V61.4783C20.0251 55.8998 24.1594 51.3358 29.2122 51.3358H23.76C18.707 51.3358 14.573 55.9001 14.573 61.4783V62.2405C14.573 67.819 18.7073 72.383 23.76 72.383H29.2122C24.1594 72.3832 20.0251 67.819 20.0251 62.2405Z" fill="#EDCAB2"/>
<path d="M64.0786 120.807V116.891C64.0786 115.775 63.259 114.87 62.2476 114.87C61.2361 114.87 60.4165 115.775 60.4165 116.891V120.807H64.0786Z" fill="#09A76D"/>
<path d="M75.9731 120.807V116.891C75.9731 115.775 75.1536 114.87 74.1421 114.87C73.1306 114.87 72.311 115.775 72.311 116.891V120.807H75.9731Z" fill="#09A76D"/>
<path d="M15.7569 120.807V116.891C15.7569 115.775 14.9373 114.87 13.9258 114.87C12.9143 114.87 12.0947 115.775 12.0947 116.891V120.807H15.7569Z" fill="#09A76D"/>
<path d="M26.4238 62.8978H23.4502C22.4387 62.8978 21.6191 61.9927 21.6191 60.8763C21.6191 59.7599 22.4387 58.8549 23.4502 58.8549H26.4238C27.4353 58.8549 28.2549 59.7599 28.2549 60.8763C28.2549 61.9927 27.4353 62.8978 26.4238 62.8978Z" fill="#32569D"/>
<path d="M39.3098 62.8978H36.3362C35.3247 62.8978 34.5051 61.9927 34.5051 60.8763C34.5051 59.7599 35.3247 58.8549 36.3362 58.8549H39.3098C40.3213 58.8549 41.1409 59.7599 41.1409 60.8763C41.1409 61.9927 40.321 62.8978 39.3098 62.8978Z" fill="#32569D"/>
<path d="M25.1997 114.009H34.9709V120.807H25.1997V114.009Z" fill="#32569D"/>
<path d="M25.1997 114.009H30.1563V120.807H25.1997V114.009Z" fill="#303A78"/>
<path d="M105.941 114.009H115.712V120.807H105.941V114.009Z" fill="#32569D"/>
<path d="M105.941 114.009H110.897V120.807H105.941V114.009Z" fill="#303A78"/>
<path d="M44.7422 114.009H54.5134V120.807H44.7422V114.009Z" fill="#32569D"/>
<path d="M44.7422 114.009H49.6987V120.807H44.7422V114.009Z" fill="#303A78"/>
<path d="M123.169 120.538H81.9204V116.891C81.9204 115.775 81.1008 114.87 80.0894 114.87C79.0779 114.87 78.2583 115.775 78.2583 116.891V120.538H70.0259V116.891C70.0259 115.775 69.2063 114.87 68.1948 114.87C67.1833 114.87 66.3638 115.775 66.3638 116.891V120.538H20.9607V116.891C20.9607 115.775 20.1411 114.87 19.1296 114.87C18.1182 114.87 17.2986 115.775 17.2986 116.891V120.538H9.64478C8.6333 120.538 7.81372 121.443 7.81372 122.559C7.81372 123.675 8.6333 124.581 9.64478 124.581H123.169C124.18 124.581 125 123.675 125 122.559C125 121.443 124.18 120.538 123.169 120.538Z" fill="#8BC727"/>
</g>
<defs>
<clipPath id="clip0">
<rect width="125" height="138" fill="white"/>
</clipPath>
</defs>
</svg>
