<svg width="43" height="43" viewBox="0 0 43 43" fill="none" xmlns="http://www.w3.org/2000/svg">
<g clip-path="url(#clip0)">
<path d="M42.9777 41.2104C42.9777 41.7474 42.7987 42.1948 42.4407 42.5528C42.0827 42.8213 41.7248 43.0002 41.1878 43.0002H1.81216C1.36475 43.0002 0.917258 42.8212 0.559262 42.5528C0.201266 42.1948 0.0223541 41.7474 0.0223541 41.2104V14.9897H42.9777V41.2104Z" fill="#FFD15C"/>
<path d="M42.4407 42.5524C42.0827 42.8209 41.7248 42.9998 41.1878 42.9998H1.81215C1.36474 42.9998 0.917246 42.8208 0.55925 42.5524L21.4999 24.5649L42.4407 42.5524Z" fill="#F8B64C"/>
<path d="M42.9777 14.9896L36.8923 19.3746L22.6634 29.5765C21.9475 30.1134 20.9631 30.1134 20.2471 29.5765L6.10768 19.3746L0.0223541 14.9896L6.10768 10.6045L19.3522 1.11859L20.3366 0.402681C21.0526 -0.134227 22.037 -0.134227 22.7529 0.402681L23.7373 1.11859L30.0911 5.6826L33.2232 7.91982L36.8923 10.6045L42.9777 14.9896Z" fill="#40596B"/>
<path d="M36.8923 6.66707V19.3746L22.6634 29.5766C21.9475 30.1135 20.963 30.1135 20.2471 29.5766L6.10768 19.3746V2.90846C6.10768 1.92406 6.91309 1.11865 7.89749 1.11865H31.2544L36.8923 6.66707Z" fill="#F2F2F2"/>
<path d="M31.3439 5.23526C31.3439 6.04067 31.9703 6.66707 32.7757 6.66707H36.8922L31.3438 1.11865L31.3439 5.23526Z" fill="#CDD6E0"/>
<path d="M26.78 19.1063H28.2118C27.7644 20.0907 27.0484 20.8066 26.064 21.3435C24.9901 21.9699 23.6478 22.2384 22.037 22.2384C20.5156 22.2384 19.1732 21.9699 18.0993 21.433C17.0254 20.8961 16.1305 20.1801 15.5936 19.1063C15.0567 18.1219 14.7882 16.9585 14.7882 15.7952C14.7882 14.4529 15.0567 13.2895 15.6831 12.1261C16.3095 10.9627 17.1149 10.1573 18.1888 9.62035C19.2627 9.08344 20.5156 8.81494 21.858 8.81494C23.0214 8.81494 24.0952 9.08344 24.9901 9.53085C25.885 9.97826 26.6009 10.6047 27.0484 11.4997C27.4958 12.3051 27.7643 13.2895 27.7643 14.2739C27.7643 15.4373 27.4063 16.5111 26.6904 17.4955C25.7955 18.7484 24.6321 19.2853 23.2003 19.2853C22.8423 19.2853 22.4844 19.1958 22.3054 19.1063C22.1264 18.9273 21.9474 18.7483 21.9474 18.4799C21.4105 19.0168 20.784 19.2853 20.0681 19.2853C19.2627 19.2853 18.6362 19.0168 18.1888 18.4799C17.6518 17.943 17.3834 17.227 17.3834 16.3321C17.3834 15.2582 17.6518 14.2738 18.2783 13.2894C18.9942 12.2155 19.9786 11.6786 21.142 11.6786C21.9474 11.6786 22.5738 12.0366 23.0213 12.663L23.2003 11.8576H25.0796L24.0057 16.869C23.9162 17.227 23.9162 17.4059 23.9162 17.4954C23.9162 17.5849 23.9162 17.6744 24.0057 17.7639C24.0952 17.8534 24.0952 17.8534 24.1847 17.8534C24.3637 17.8534 24.7216 17.6744 25.0796 17.406C25.527 17.048 25.9745 16.6006 26.243 15.9742C26.5115 15.3478 26.6904 14.7213 26.6904 14.0949C26.6904 12.9315 26.243 11.9471 25.4375 11.2312C24.6321 10.4258 23.4687 10.0678 21.9474 10.0678C20.6945 10.0678 19.6207 10.3363 18.7257 10.8732C17.8308 11.4101 17.2044 12.1261 16.7569 13.021C16.3094 13.9159 16.1305 14.9003 16.1305 15.9742C16.1305 16.9586 16.399 17.8535 16.8464 18.6589C17.3834 19.4643 18.0098 20.0907 18.9047 20.4487C19.7997 20.8067 20.7841 20.9856 21.9475 20.9856C23.0214 20.9856 24.0058 20.8066 24.8112 20.5382C25.6166 20.1801 26.243 19.7327 26.78 19.1063ZM19.1732 16.2426C19.1732 16.869 19.2627 17.227 19.5312 17.5849C19.7997 17.8534 20.0681 18.0323 20.4261 18.0323C20.6946 18.0323 20.9631 17.9428 21.142 17.8533C21.321 17.7638 21.5 17.5848 21.679 17.4059C21.9475 17.1374 22.1265 16.69 22.3054 16.153C22.4844 15.6161 22.5739 15.0791 22.5739 14.6317C22.5739 14.0948 22.4844 13.7368 22.2159 13.3788C21.9474 13.1103 21.679 12.9314 21.321 12.9314C20.963 12.9314 20.5156 13.1104 20.2471 13.3788C19.8891 13.6473 19.6207 14.0947 19.4417 14.7211C19.2627 15.2582 19.1732 15.7951 19.1732 16.2426Z" fill="#FF7058"/>
</g>
<defs>
<clipPath id="clip0">
<rect width="43" height="43" fill="white"/>
</clipPath>
</defs>
</svg>
