<svg width="139" height="139" viewBox="0 0 139 139" fill="none" xmlns="http://www.w3.org/2000/svg">
<path d="M38.1619 126.439C31.7819 119.189 25.4021 111.649 21.342 102.659C17.2821 93.0891 16.122 82.0693 18.1521 71.6294C20.1822 61.1895 24.8219 51.3295 31.4921 42.9197C30.9122 50.1697 33.5221 57.7096 38.452 63.2196C35.5519 49.2997 40.192 34.2198 49.4718 23.2C58.7516 12.1802 71.5117 4.92986 84.8514 0C78.1816 6.95994 77.3116 17.9797 79.9215 27.2598C82.5315 36.5397 88.0416 44.6597 92.9714 53.0695C97.9013 61.4793 102.541 70.1793 102.831 79.7492C105.441 74.8193 108.341 69.8892 110.081 64.3794C111.821 58.8694 112.691 53.0695 111.242 47.5595C116.461 53.9395 119.362 60.3193 120.811 68.4393C122.261 76.5593 121.972 84.9691 121.102 93.0891C119.941 102.079 117.622 111.359 112.692 118.899C106.892 127.889 97.6117 134.269 87.4619 137.749C69.4816 140.939 51.7917 138.329 38.1619 126.439Z" fill="#F3705A"/>
<path d="M60.2018 137.169C83.9814 146.449 107.471 118.319 94.4213 96.5692C94.4213 96.2791 94.1312 96.2791 94.1312 95.9893C95.2913 107.879 92.3913 116.579 86.8812 121.509C89.7813 114.549 87.7512 106.429 84.2712 99.4692C80.7913 92.7994 75.8614 86.7094 72.0913 80.3294C68.3213 73.6595 65.4215 66.1194 67.1615 58.5796C60.2016 63.7995 55.2717 71.6295 53.2416 80.0393C51.2115 88.4491 52.3716 97.7292 56.1417 105.559C51.7917 102.369 48.6018 97.1493 48.3117 91.6393C43.6717 97.1493 40.7719 104.399 41.0617 111.649C41.062 122.959 50.0517 133.109 60.2018 137.169Z" fill="#FFD15C"/>
</svg>
