<svg width="107" height="107" viewBox="0 0 107 107" fill="none" xmlns="http://www.w3.org/2000/svg">
<g clip-path="url(#clip0)">
<path d="M75.0586 44.1646C74.2513 45.0166 73.11 45.4655 71.9362 45.3928C71.5301 45.3671 61.878 44.7036 52.0056 39.3837C42.6763 34.3563 31.4184 24.1554 30.7647 4.10633C30.7287 3.01292 31.1473 1.95379 31.9205 1.18013C33.1 0 34.4844 0 35.0756 0C35.0758 0 35.0758 0 35.0758 0C35.494 0 45.3254 0.0706365 55.4555 6.14476C60.7141 9.29812 65.0861 13.4901 68.4503 18.6048C72.5142 24.7836 75.0931 32.3119 76.1154 40.9799C76.2529 42.146 75.8657 43.3124 75.0586 44.1646Z" fill="#6DC82A"/>
<path d="M52.6404 18.8008C50.9814 21.8624 49.5823 25.3106 48.5783 29.1952C47.6755 31.8915 46.2969 36.6288 45.1589 43.1832C51.1607 45.0615 55.7258 45.3754 56.0023 45.3927C57.1763 45.4657 58.3174 45.0168 59.1247 44.1645C59.9318 43.3123 60.3191 42.146 60.1813 40.9803C59.1696 32.4025 56.6311 24.943 52.6404 18.8008Z" fill="#5EAC24"/>
<path d="M70.7361 37.3777L62.2121 29.0654L59.9643 17.8643C59.7864 16.9765 58.9227 16.402 58.0347 16.5796C57.147 16.7577 56.5723 17.6218 56.7501 18.5092L58.0552 25.0119L53.3541 20.4276L51.0753 9.0725C50.8975 8.18474 50.0334 7.61087 49.1458 7.78788C48.258 7.96593 47.6833 8.82987 47.8612 9.71743L49.197 16.374L38.227 5.67735C37.5783 5.04538 36.5414 5.05876 35.9092 5.70661C35.2772 6.35488 35.2904 7.39248 35.9384 8.02424L48.0008 19.7867L39.5863 19.6429C38.682 19.6183 37.9351 20.3487 37.9194 21.2538C37.9041 22.1589 38.6251 22.9049 39.5302 22.9206L51.4229 23.124L57.0184 28.5805L48.4752 28.4349C47.5782 28.4148 46.824 29.1406 46.8083 30.0457C46.7931 30.9508 47.5141 31.6969 48.4192 31.7126L60.4403 31.9178L68.4467 39.725C68.7656 40.0358 69.1784 40.1904 69.5907 40.1904C70.017 40.1904 70.4429 40.0249 70.7646 39.6956C71.3972 39.0471 71.3842 38.0095 70.7361 37.3777Z" fill="#4E901E"/>
<path d="M97.7677 1.23584C96.9604 0.383817 95.8191 -0.065081 94.6453 0.00764543C94.2392 0.0333505 84.5871 0.696875 74.7147 6.01677C67.1284 10.1047 58.2675 17.6139 54.8694 31.057C53.0134 36.5226 48.9246 51.3448 49.8809 73.6622C49.9637 75.593 51.5549 77.1027 53.4692 77.1025C53.521 77.1025 53.5733 77.1014 53.6257 77.0991C55.6088 77.0141 57.1475 75.3378 57.0627 73.3543C56.5672 61.7927 57.5191 52.341 58.7458 45.3666C61.5063 45.2084 69.7313 44.3123 78.1646 39.2557C83.4233 36.1023 87.7952 31.9103 91.1594 26.7956C95.2233 20.6168 97.8022 13.0886 98.8245 4.42055C98.9621 3.25442 98.5748 2.08808 97.7677 1.23584Z" fill="#91DC5A"/>
<path d="M92.6069 5.70668C91.9745 5.05863 90.9369 5.04546 90.289 5.67743L79.3199 16.3739L80.6557 9.71751C80.8335 8.82995 80.2588 7.96622 79.3711 7.78796C78.4846 7.61074 77.6196 8.18482 77.4415 9.07258L75.1626 20.4277L70.4617 25.012L71.7668 18.5093C71.9448 17.6217 71.3699 16.758 70.4821 16.5797C69.5948 16.4021 68.7307 16.9766 68.5526 17.8643L66.3046 29.0657L57.7803 37.378C57.1321 38.01 57.1193 39.0476 57.7511 39.6956C58.0725 40.025 58.4982 40.1903 58.9249 40.1903C59.3375 40.1903 59.7504 40.0356 60.0689 39.7249L68.0753 31.9177L80.0969 31.7124C81.002 31.697 81.723 30.9509 81.7077 30.0456C81.6925 29.1499 80.9616 28.4345 80.0695 28.4345C80.0599 28.4345 80.0503 28.4345 80.0409 28.4347L71.4974 28.5804L77.0929 23.1238L88.9856 22.9205C89.8907 22.905 90.6117 22.1589 90.5964 21.2536C90.5812 20.3579 89.8504 19.6426 88.9582 19.6426C88.9486 19.6426 88.939 19.6426 88.9296 19.6428L80.5151 19.7866L92.5774 8.02411C93.2259 7.39235 93.2388 6.35474 92.6069 5.70668Z" fill="#5EAC24"/>
<path d="M94.0542 85.7096C92.4012 85.7096 90.8572 86.1752 89.545 86.9817C87.6069 80.6407 81.71 76.028 74.7345 76.028C73.9604 76.028 73.2004 76.0865 72.457 76.1962C69.2951 68.9625 62.0799 63.9053 53.6806 63.9053C45.2814 63.9053 38.0662 68.9625 34.9043 76.1962C34.1607 76.0865 33.4004 76.028 32.6268 76.028C25.6513 76.028 19.7546 80.6407 17.8163 86.9817C16.5041 86.1752 14.9603 85.7096 13.307 85.7096C8.54324 85.7096 4.68121 89.5716 4.68121 94.3354C4.68121 99.0992 8.54324 102.961 13.307 102.961C15.86 102.961 18.1529 101.852 19.732 100.089C22.5078 104.254 27.2458 107 32.6265 107C36.9841 107 40.919 105.198 43.7328 102.301C46.6788 103.941 50.0694 104.878 53.6806 104.878C57.2917 104.878 60.6824 103.941 63.6285 102.301C66.4427 105.198 70.3772 107 74.7347 107C80.1154 107 84.8537 104.255 87.6292 100.089C89.2085 101.852 91.5015 102.961 94.0542 102.961C98.818 102.961 102.68 99.0992 102.68 94.3354C102.68 89.5714 98.818 85.7096 94.0542 85.7096Z" fill="#CC7400"/>
<path d="M70.9608 72.2913C72.998 72.2913 74.9637 72.5929 76.8212 73.1465C73.1587 67.5813 66.8597 63.905 59.6995 63.905C51.3 63.905 44.0851 68.9622 40.9231 76.196C40.1796 76.0863 39.4193 76.0278 38.6456 76.0278C31.6702 76.0278 25.7735 80.6405 23.8351 86.9815C22.5229 86.175 20.9792 85.7094 19.3259 85.7094C14.5621 85.7094 10.7001 89.5714 10.7001 94.3352C10.7001 99.099 14.5621 102.961 19.3259 102.961C21.8788 102.961 24.1718 101.851 25.7509 100.089C28.5266 104.254 33.2647 107 38.6454 107C43.0029 107 46.9379 105.197 49.7517 102.3C51.0365 103.016 52.4058 103.597 53.8409 104.026C51.7151 100.797 50.4745 96.9328 50.4745 92.7778C50.4745 81.4636 59.6466 72.2913 70.9608 72.2913Z" fill="#AA6100"/>
<path d="M67.8465 91.6989C69.8976 91.6989 71.5604 90.0362 71.5604 87.9851C71.5604 85.934 69.8976 84.2712 67.8465 84.2712C65.7954 84.2712 64.1327 85.934 64.1327 87.9851C64.1327 90.0362 65.7954 91.6989 67.8465 91.6989Z" fill="#AA6100"/>
<path d="M82.8207 100.445C84.8718 100.445 86.5345 98.782 86.5345 96.7309C86.5345 94.6798 84.8718 93.0171 82.8207 93.0171C80.7696 93.0171 79.1068 94.6798 79.1068 96.7309C79.1068 98.782 80.7696 100.445 82.8207 100.445Z" fill="#AA6100"/>
<path d="M80.5369 85.4521C81.3261 85.4521 81.9659 84.8123 81.9659 84.023C81.9659 83.2338 81.3261 82.594 80.5369 82.594C79.7476 82.594 79.1078 83.2338 79.1078 84.023C79.1078 84.8123 79.7476 85.4521 80.5369 85.4521Z" fill="#AA6100"/>
<path d="M59.6995 99.5893C60.4888 99.5893 61.1285 98.9495 61.1285 98.1602C61.1285 97.371 60.4888 96.7312 59.6995 96.7312C58.9103 96.7312 58.2705 97.371 58.2705 98.1602C58.2705 98.9495 58.9103 99.5893 59.6995 99.5893Z" fill="#AA6100"/>
<path d="M64.1314 80.111C64.9207 80.111 65.5604 79.4712 65.5604 78.682C65.5604 77.8927 64.9207 77.2529 64.1314 77.2529C63.3422 77.2529 62.7024 77.8927 62.7024 78.682C62.7024 79.4712 63.3422 80.111 64.1314 80.111Z" fill="#AA6100"/>
<path d="M94.8817 93.1293C95.671 93.1293 96.3108 92.4895 96.3108 91.7003C96.3108 90.911 95.671 90.2712 94.8817 90.2712C94.0925 90.2712 93.4527 90.911 93.4527 91.7003C93.4527 92.4895 94.0925 93.1293 94.8817 93.1293Z" fill="#AA6100"/>
<path d="M80.3366 70.0068C82.3877 70.0068 84.0504 68.3441 84.0504 66.293C84.0504 64.2419 82.3877 62.5791 80.3366 62.5791C78.2855 62.5791 76.6227 64.2419 76.6227 66.293C76.6227 68.3441 78.2855 70.0068 80.3366 70.0068Z" fill="#CC7400"/>
<path d="M88.6826 76.0263C89.4718 76.0263 90.1116 75.3865 90.1116 74.5972C90.1116 73.808 89.4718 73.1682 88.6826 73.1682C87.8933 73.1682 87.2535 73.808 87.2535 74.5972C87.2535 75.3865 87.8933 76.0263 88.6826 76.0263Z" fill="#CC7400"/>
<path d="M88.6826 69.1513C89.4718 69.1513 90.1116 68.5115 90.1116 67.7222C90.1116 66.933 89.4718 66.2932 88.6826 66.2932C87.8933 66.2932 87.2535 66.933 87.2535 67.7222C87.2535 68.5115 87.8933 69.1513 88.6826 69.1513Z" fill="#CC7400"/>
<path d="M23.517 68.6958C25.5681 68.6958 27.2309 67.033 27.2309 64.9819C27.2309 62.9308 25.5681 61.2681 23.517 61.2681C21.4659 61.2681 19.8032 62.9308 19.8032 64.9819C19.8032 67.033 21.4659 68.6958 23.517 68.6958Z" fill="#AA6100"/>
<path d="M17.3499 74.5976C18.1391 74.5976 18.7789 73.9578 18.7789 73.1685C18.7789 72.3793 18.1391 71.7395 17.3499 71.7395C16.5606 71.7395 15.9208 72.3793 15.9208 73.1685C15.9208 73.9578 16.5606 74.5976 17.3499 74.5976Z" fill="#AA6100"/>
</g>
<defs>
<clipPath id="clip0">
<rect width="107" height="107" fill="white"/>
</clipPath>
</defs>
</svg>
