<svg width="163" height="163" viewBox="0 0 163 163" fill="none" xmlns="http://www.w3.org/2000/svg">
<g clip-path="url(#clip0)">
<path d="M63.8879 8.2881C63.8879 6.7623 65.1248 5.52539 66.6506 5.52539C68.1764 5.52539 69.4133 6.7623 69.4133 8.2881V16.5762C69.4133 18.102 68.1764 19.339 66.6506 19.339C65.1248 19.339 63.8879 18.102 63.8879 16.5762V8.2881Z" fill="#D18B29"/>
<path d="M74.9388 5.52541C74.9388 3.9996 76.1757 2.7627 77.7015 2.7627C79.2273 2.7627 80.4642 3.9996 80.4642 5.52541V16.5763C80.4642 18.1021 79.2273 19.339 77.7015 19.339C76.1757 19.339 74.9388 18.1021 74.9388 16.5763V5.52541Z" fill="#D18B29"/>
<path d="M85.9896 8.2881C85.9896 6.7623 87.2265 5.52539 88.7523 5.52539C90.2781 5.52539 91.515 6.7623 91.515 8.2881V16.5762C91.515 18.102 90.2781 19.339 88.7523 19.339C87.2265 19.339 85.9896 18.102 85.9896 16.5762V8.2881Z" fill="#D18B29"/>
<path d="M97.0404 8.2881C97.0404 6.7623 98.2773 5.52539 99.8032 5.52539C101.329 5.52539 102.566 6.7623 102.566 8.2881V16.5762C102.566 18.102 101.329 19.339 99.8032 19.339C98.2773 19.339 97.0404 18.102 97.0404 16.5762V8.2881Z" fill="#D18B29"/>
<path d="M108.091 2.76272C108.091 1.23691 109.328 0 110.854 0C112.38 0 113.617 1.23691 113.617 2.76272V16.5763C113.617 18.1021 112.38 19.339 110.854 19.339C109.328 19.339 108.091 18.1021 108.091 16.5763V2.76272Z" fill="#D18B29"/>
<path d="M119.142 8.2881C119.142 6.7623 120.379 5.52539 121.905 5.52539C123.431 5.52539 124.668 6.7623 124.668 8.2881V16.5762C124.668 18.102 123.431 19.339 121.905 19.339C120.379 19.339 119.142 18.102 119.142 16.5762V8.2881Z" fill="#D18B29"/>
<path d="M130.193 5.52541C130.193 3.99961 131.43 2.7627 132.956 2.7627C134.482 2.7627 135.718 3.99961 135.718 5.52541V16.5763C135.718 18.1021 134.482 19.339 132.956 19.339C131.43 19.339 130.193 18.1021 130.193 16.5763V5.52541Z" fill="#D18B29"/>
<path d="M141.244 8.28809C141.244 6.76229 142.481 5.52539 144.007 5.52539C145.532 5.52539 146.769 6.7623 146.769 8.28809V16.5762C146.769 18.102 145.532 19.339 144.007 19.339C142.481 19.339 141.244 18.102 141.244 16.5762V8.28809Z" fill="#D18B29"/>
<path d="M61.1251 163H149.532L144.006 96.6946V74.593L149.532 13.8135H61.1251L66.181 69.3441L61.1251 163Z" fill="#ECAF4A"/>
<path d="M144.006 96.6947H97.0402V104.983H144.697L144.006 96.6947Z" fill="#D69F44"/>
<path d="M82.233 33.3911C82.0949 31.8714 83.215 30.5276 84.7347 30.3898C86.254 30.252 87.5974 31.3717 87.7354 32.8909L90.4999 63.3044C90.638 64.8238 89.5183 66.1675 87.9989 66.3057C86.4793 66.4439 85.1355 65.3241 84.9974 63.8046L82.233 33.3911Z" fill="#D18B29"/>
<path d="M125.451 35.905C123.932 35.7661 122.814 34.4105 122.953 32.8911C123.091 31.3715 124.437 30.2407 125.957 30.3797C127.476 30.5186 128.594 31.8742 128.455 33.3936C128.316 34.9132 126.971 36.044 125.451 35.905Z" fill="#D18B29"/>
<path d="M102.566 27.627C102.566 26.1012 103.803 24.8643 105.328 24.8643C106.854 24.8643 108.091 26.1012 108.091 27.627V71.8303C108.091 73.3562 106.854 74.5931 105.328 74.5931C103.803 74.5931 102.566 73.3562 102.566 71.8304V27.627Z" fill="#D18B29"/>
<path d="M122.415 132.852C122.277 131.332 123.397 129.988 124.917 129.85C126.437 129.712 127.781 130.832 127.918 132.352L128.421 137.898C128.559 139.418 127.439 140.762 125.92 140.899C124.4 141.037 123.057 139.917 122.919 138.398L122.415 132.852Z" fill="#D18B29"/>
<path d="M124.417 124.322C122.897 124.461 121.552 123.341 121.414 121.821L119.154 96.9458L119.142 74.5931L121.918 43.9429C122.056 42.4226 123.4 41.3021 124.921 41.4407C126.44 41.5792 127.559 42.923 127.421 44.4424L124.656 74.8441L124.667 96.6948L126.917 121.319C127.056 122.839 125.936 124.183 124.417 124.322Z" fill="#D18B29"/>
<path d="M116.379 116.034C116.379 90.0955 95.3527 69.0676 69.4132 69.0676C68.3084 69.0676 67.2481 69.1594 66.1702 69.2309V69.3442L61.1669 162.232C74.855 164.744 88.9505 161.03 99.6236 152.1C110.297 143.17 116.439 129.95 116.379 116.034Z" fill="#D69F44"/>
<path d="M66.6505 74.593H146.769C149.822 74.593 152.295 77.067 152.295 80.1184C152.295 83.1698 149.822 85.6439 146.769 85.6439H66.6505V74.593Z" fill="#88BF40"/>
<path d="M66.6505 85.6439H105.188C101.364 81.1356 96.7246 77.3868 91.5149 74.593H66.6505V85.6439Z" fill="#87B23F"/>
<path d="M66.6505 85.6438H146.769C149.822 85.6438 152.295 88.1178 152.295 91.1692C152.295 94.2206 149.822 96.6946 146.769 96.6946H66.6505V85.6438Z" fill="#88BF40"/>
<path d="M66.6505 91.1692V85.6438H146.769C149.822 85.6438 152.295 88.1178 152.295 91.1692H66.6505Z" fill="#87B23F"/>
<path d="M66.6505 85.6438V96.6946H112.18C110.376 92.703 108.022 88.9839 105.188 85.6438H66.6505Z" fill="#87B23F"/>
<path d="M108.091 116.034C108.091 141.972 87.0647 163 61.1252 163C35.187 163 14.1591 141.972 14.1591 116.034C14.1591 90.0955 35.187 69.0676 61.1252 69.0676C87.0647 69.0676 108.091 90.0955 108.091 116.034Z" fill="#ECAF4A"/>
<path d="M94.2777 116.034C94.2777 134.343 79.4348 149.186 61.1251 149.186C42.8154 149.186 27.9726 134.343 27.9726 116.034C27.9726 97.7239 42.8154 82.8811 61.1251 82.8811C79.4348 82.8811 94.2777 97.7239 94.2777 116.034Z" fill="#D69F44"/>
<path d="M80.4641 116.034C80.4641 126.715 71.8063 135.373 61.1251 135.373C50.4452 135.373 41.7861 126.715 41.7861 116.034C41.7861 105.352 50.4452 96.6947 61.1251 96.6947C71.8063 96.6947 80.4641 105.352 80.4641 116.034Z" fill="#ECAF4A"/>
<path d="M153.264 107.961C153.138 106.442 154.267 105.107 155.787 104.98C157.307 104.853 158.641 105.983 158.768 107.503L162.685 154.49C162.812 156.01 161.683 157.345 160.163 157.472C158.643 157.598 157.308 156.469 157.182 154.949L153.264 107.961Z" fill="#F9D28D"/>
<path d="M61.1251 151.949C61.0488 151.949 60.9727 151.949 60.8965 151.948C59.3697 151.938 58.2359 150.592 58.3626 149.07L58.3813 148.846C58.4974 147.45 59.725 146.424 61.1255 146.424C62.526 146.424 63.7527 147.45 63.8689 148.846L63.8876 149.07C64.0142 150.592 62.8806 151.938 61.3539 151.948C61.2776 151.949 61.2014 151.949 61.1251 151.949Z" fill="#D18B29"/>
<path d="M50.0743 147.3C49.5661 148.739 47.9829 149.503 46.5875 148.887C33.6575 143.181 25.1843 130.339 25.1843 116.034C25.1843 101.729 33.6575 88.886 46.5875 83.1805C47.9829 82.5647 49.5661 83.3288 50.0743 84.767C50.5825 86.2051 49.8217 87.7718 48.4357 88.4087C37.7254 93.3305 30.7353 104.08 30.7353 116.034C30.7353 127.988 37.7254 138.737 48.4357 143.659C49.8217 144.296 50.5825 145.862 50.0743 147.3Z" fill="#D18B29"/>
<path d="M71.92 147.137C72.4282 148.575 74.0114 149.339 75.4069 148.723C88.3369 143.018 96.8101 130.175 96.8101 115.87C96.8101 101.565 88.3369 88.7226 75.4069 83.0171C74.0114 82.4013 72.4282 83.1654 71.92 84.6035C71.4118 86.0417 72.1727 87.6084 73.5586 88.2453C84.2689 93.167 91.259 103.916 91.259 115.87C91.259 127.824 84.2689 138.573 73.5586 143.495C72.1727 144.132 71.4118 145.699 71.92 147.137Z" fill="#D18B29"/>
<path d="M51.1576 132.612C50.3714 133.917 48.6617 134.351 47.4627 133.411C38.8144 126.628 36.3742 114.305 42.1841 104.643C47.9946 94.9816 60.0214 91.3595 70.066 95.8177C71.4601 96.4365 71.8779 98.1522 71.0912 99.4588C70.3051 100.764 68.6144 101.161 67.197 100.601C59.7947 97.6789 51.1501 100.444 46.9136 107.492C42.6791 114.537 44.2913 123.467 50.3422 128.633C51.5024 129.623 51.9448 131.305 51.1576 132.612Z" fill="#D18B29"/>
<path d="M61.1251 124.322C57.2309 124.322 53.9636 121.635 53.0753 118.015C52.8121 116.942 53.7324 116.034 54.8369 116.034H56.3624C57.4669 116.034 58.3233 117.036 59.0552 117.863C59.5614 118.436 60.3011 118.796 61.1251 118.796C62.6508 118.796 63.8878 117.559 63.8878 116.034C63.8878 115.21 63.527 114.47 62.9548 113.964C62.1275 113.232 61.1251 112.375 61.1251 111.271V109.745C61.1251 108.641 62.0337 107.721 63.1064 107.984C66.7277 108.872 69.4132 112.139 69.4132 116.034C69.4132 120.611 65.7035 124.322 61.1251 124.322Z" fill="#D18B29"/>
<path d="M6.41407 135.372C4.97528 135.88 3.39021 135.126 2.94785 133.666C-5.46657 105.886 6.9762 75.9664 32.6068 62.3454C33.9545 61.6292 35.6072 62.2211 36.2619 63.5998C36.9163 64.9778 36.3257 66.6195 34.982 67.3416C11.904 79.7436 0.684703 106.718 8.16282 131.828C8.59787 133.289 7.85117 134.864 6.41407 135.372Z" fill="#F9D28D"/>
<path d="M11.4146 145.922C10.1082 146.71 8.38635 146.305 7.65927 144.964C7.58506 144.827 7.51137 144.689 7.43819 144.552C6.72132 143.205 7.33049 141.544 8.70892 140.889C10.0678 140.244 11.7053 140.82 12.4173 142.145C13.1284 143.468 12.701 145.146 11.4146 145.922Z" fill="#F9D28D"/>
<path d="M65.5546 136.889C64.6178 136.654 63.9217 135.868 63.8029 134.91L63.7928 134.828C63.6282 133.501 64.5645 132.304 65.8467 131.924C70.3215 130.596 74.0717 127.424 76.1055 123.14C78.0882 118.963 78.2196 114.191 76.5558 109.964C75.9976 108.545 76.3944 106.855 77.6999 106.068C79.0065 105.281 80.7217 105.698 81.3392 107.092C83.9245 112.932 83.8718 119.66 81.0954 125.51C77.9874 132.06 73.5201 135.786 66.4553 136.93C66.156 136.979 65.8487 136.962 65.5546 136.889Z" fill="#D18B29"/>
</g>
<defs>
<clipPath id="clip0">
<rect width="163" height="163" fill="white"/>
</clipPath>
</defs>
</svg>
