<svg width="131" height="48" viewBox="0 0 131 48" fill="none" xmlns="http://www.w3.org/2000/svg">
<path d="M64.4199 9.33594C65.5576 9.33594 66.4414 9.62891 67.0713 10.2148C67.7061 10.8008 68.0234 11.5723 68.0234 12.5293C68.0234 13.4961 67.7061 14.27 67.0713 14.8511C66.4414 15.4321 65.5576 15.7227 64.4199 15.7227H62.1567V18.8721L63.3506 19.0771V20H59.52V19.0771L60.7139 18.8721V10.4712L59.52 10.2661V9.33594H60.7139H64.4199ZM62.1567 14.5947H64.4199C65.1426 14.5947 65.6821 14.4019 66.0386 14.0161C66.3999 13.6255 66.5806 13.1348 66.5806 12.5439C66.5806 11.9531 66.3999 11.46 66.0386 11.0645C65.6821 10.6689 65.1426 10.4712 64.4199 10.4712H62.1567V14.5947ZM69.0928 15.9644C69.0928 14.7925 69.4102 13.8281 70.0449 13.0713C70.6797 12.3096 71.5415 11.9287 72.6304 11.9287C73.7241 11.9287 74.5884 12.3071 75.2231 13.064C75.8628 13.8208 76.1826 14.7876 76.1826 15.9644V16.1255C76.1826 17.3071 75.8652 18.2739 75.2305 19.0259C74.5957 19.7778 73.7339 20.1538 72.645 20.1538C71.5464 20.1538 70.6797 19.7778 70.0449 19.0259C69.4102 18.269 69.0928 17.3022 69.0928 16.1255V15.9644ZM70.5356 16.1255C70.5356 16.9653 70.7114 17.6587 71.063 18.2056C71.4194 18.7524 71.9468 19.0259 72.645 19.0259C73.3286 19.0259 73.8486 18.7524 74.2051 18.2056C74.5615 17.6587 74.7397 16.9653 74.7397 16.1255V15.9644C74.7397 15.1343 74.5615 14.4434 74.2051 13.8916C73.8486 13.3398 73.3237 13.064 72.6304 13.064C71.937 13.064 71.4146 13.3398 71.063 13.8916C70.7114 14.4434 70.5356 15.1343 70.5356 15.9644V16.1255ZM77.1641 9.50439V8.57422H79.8008V18.8721L80.9946 19.0771V20H77.1641V19.0771L78.3579 18.8721V9.70947L77.1641 9.50439ZM85.7114 20.1538C84.6079 20.1538 83.729 19.7876 83.0747 19.0552C82.4253 18.3179 82.1006 17.3633 82.1006 16.1914V15.8691C82.1006 14.7412 82.4351 13.8037 83.104 13.0566C83.7778 12.3047 84.5737 11.9287 85.4917 11.9287C86.5562 11.9287 87.3618 12.251 87.9087 12.8955C88.4604 13.54 88.7363 14.3994 88.7363 15.4736V16.3745H83.5947L83.5728 16.4111C83.5874 17.1729 83.7803 17.8003 84.1514 18.2935C84.5225 18.7817 85.0425 19.0259 85.7114 19.0259C86.1997 19.0259 86.627 18.9575 86.9932 18.8208C87.3643 18.6792 87.6841 18.4863 87.9526 18.2422L88.5166 19.1797C88.2334 19.4531 87.8574 19.6851 87.3887 19.8755C86.9248 20.061 86.3657 20.1538 85.7114 20.1538ZM85.4917 13.064C85.0083 13.064 84.5957 13.269 84.2539 13.6792C83.9121 14.0845 83.7021 14.5947 83.624 15.21L83.6387 15.2466H87.2935V15.0562C87.2935 14.4897 87.1421 14.0161 86.8394 13.6353C86.5366 13.2544 86.0874 13.064 85.4917 13.064ZM63.9878 26.3359C65.3794 26.3359 66.4976 26.7656 67.3423 27.625C68.1919 28.4795 68.6167 29.5854 68.6167 30.9429V32.4004C68.6167 33.7627 68.1919 34.8711 67.3423 35.7256C66.4976 36.5752 65.3794 37 63.9878 37H59.52V36.0771L60.7139 35.8721V27.4712L59.52 27.2661V26.3359H60.7139H63.9878ZM62.1567 27.4712V35.8721H63.9878C64.9741 35.8721 65.7505 35.5474 66.3169 34.8979C66.8882 34.2485 67.1738 33.416 67.1738 32.4004V30.9282C67.1738 29.9224 66.8882 29.0947 66.3169 28.4453C65.7505 27.7959 64.9741 27.4712 63.9878 27.4712H62.1567ZM77.5815 30.0054L76.8711 30.1152L73.8535 38.2158C73.6533 38.748 73.3652 39.2119 72.9893 39.6074C72.6133 40.0029 72.1079 40.2007 71.4731 40.2007C71.3608 40.2007 71.2144 40.186 71.0337 40.1567C70.853 40.1323 70.7139 40.1079 70.6162 40.0835L70.7627 38.9482C70.7334 38.9434 70.8188 38.9482 71.019 38.9629C71.2241 38.9775 71.3535 38.9849 71.4072 38.9849C71.7148 38.9849 71.9639 38.8506 72.1543 38.582C72.3447 38.3184 72.5107 38.0132 72.6523 37.6665L72.9966 36.8462L70.3818 30.1226L69.6567 30.0054V29.0752H72.8574V30.0054L71.9639 30.1519L73.3335 34.063L73.5972 35.0737H73.6411L75.2891 30.1519L74.3882 30.0054V29.0752H77.5815V30.0054ZM78.3506 36.0771L79.5444 35.8721V30.2104L78.3506 30.0054V29.0752H80.8335L80.936 30.2544C81.1997 29.8345 81.5293 29.5098 81.9248 29.2803C82.3252 29.0459 82.7793 28.9287 83.2871 28.9287C84.1416 28.9287 84.8032 29.1802 85.272 29.6831C85.7407 30.1812 85.9751 30.9526 85.9751 31.9976V35.8721L87.1689 36.0771V37H83.3384V36.0771L84.5322 35.8721V32.0269C84.5322 31.3286 84.3931 30.833 84.1147 30.54C83.8413 30.2471 83.4214 30.1006 82.855 30.1006C82.4399 30.1006 82.0713 30.2007 81.749 30.4009C81.4316 30.6011 81.1777 30.8745 80.9873 31.2212V35.8721L82.1812 36.0771V37H78.3506V36.0771ZM88.2163 36.0771L89.4102 35.8721V30.2104L88.2163 30.0054V29.0752H90.853V35.8721L92.0469 36.0771V37H88.2163V36.0771ZM90.853 27.0464H89.4102V25.5742H90.853V27.0464ZM93.1602 32.9644C93.1602 31.7925 93.4775 30.8281 94.1123 30.0713C94.7471 29.3096 95.6089 28.9287 96.6978 28.9287C97.7915 28.9287 98.6558 29.3071 99.2905 30.064C99.9302 30.8208 100.25 31.7876 100.25 32.9644V33.1255C100.25 34.3071 99.9326 35.2739 99.2979 36.0259C98.6631 36.7778 97.8013 37.1538 96.7124 37.1538C95.6138 37.1538 94.7471 36.7778 94.1123 36.0259C93.4775 35.269 93.1602 34.3022 93.1602 33.1255V32.9644ZM94.603 33.1255C94.603 33.9653 94.7788 34.6587 95.1304 35.2056C95.4868 35.7524 96.0142 36.0259 96.7124 36.0259C97.396 36.0259 97.916 35.7524 98.2725 35.2056C98.6289 34.6587 98.8071 33.9653 98.8071 33.1255V32.9644C98.8071 32.1343 98.6289 31.4434 98.2725 30.8916C97.916 30.3398 97.3911 30.064 96.6978 30.064C96.0044 30.064 95.4819 30.3398 95.1304 30.8916C94.7788 31.4434 94.603 32.1343 94.603 32.9644V33.1255ZM104.388 30.0054L103.48 30.1665L104.513 34.1143L104.681 35.0737H104.725L104.93 34.1143L106.512 29.0752H107.669L109.259 34.1143L109.486 35.1836H109.53L109.742 34.1143L110.716 30.1665L109.793 30.0054V29.0752H112.811V30.0054L112.123 30.1079L110.123 37H108.958L107.42 32.1733L107.091 30.8403L107.047 30.8477L106.739 32.1733L105.23 37H104.066L102.066 30.1079L101.371 30.0054V29.0752H104.388V30.0054ZM117.601 37.1538C116.498 37.1538 115.619 36.7876 114.964 36.0552C114.315 35.3179 113.99 34.3633 113.99 33.1914V32.8691C113.99 31.7412 114.325 30.8037 114.994 30.0566C115.667 29.3047 116.463 28.9287 117.381 28.9287C118.446 28.9287 119.251 29.251 119.798 29.8955C120.35 30.54 120.626 31.3994 120.626 32.4736V33.3745H115.484L115.462 33.4111C115.477 34.1729 115.67 34.8003 116.041 35.2935C116.412 35.7817 116.932 36.0259 117.601 36.0259C118.089 36.0259 118.517 35.9575 118.883 35.8208C119.254 35.6792 119.574 35.4863 119.842 35.2422L120.406 36.1797C120.123 36.4531 119.747 36.6851 119.278 36.8755C118.814 37.061 118.255 37.1538 117.601 37.1538ZM117.381 30.064C116.898 30.064 116.485 30.269 116.144 30.6792C115.802 31.0845 115.592 31.5947 115.514 32.21L115.528 32.2466H119.183V32.0562C119.183 31.4897 119.032 31.0161 118.729 30.6353C118.426 30.2544 117.977 30.064 117.381 30.064Z" fill="#404040"/>
<path d="M35.4878 14C34.6214 14 33.5284 14.2279 32.7713 14.6494V14.65C31.97 14.2279 31.1225 14 30.2561 14C29.2714 14 28.3283 14.2945 27.4588 14.8328C26.9076 14.3459 26.2475 14 25.5 14C24.7525 14 24.0924 14.3459 23.5412 14.8328C22.6717 14.2945 21.4908 14 20.5061 14C19.6778 14 18.8786 14.2088 18.128 14.595C17.3775 14.2088 16.3405 14 15.5122 14C11.1342 14 6 19.8201 6 27C6 34.1799 11.1342 40 15.5122 40C16.3405 40 17.3775 39.7912 18.128 39.4053C18.8786 39.7912 19.6778 40 20.5061 40C21.4908 40 22.6717 39.7058 23.5412 39.1672C24.15 39.7058 24.8104 40 25.5 40C26.1896 40 26.85 39.7058 27.4588 39.1672C28.3283 39.7058 29.2714 40 30.2561 40C31.1234 40 31.97 39.7715 32.7688 39.3494C33.5259 39.7715 34.6205 40 35.4878 40C39.8658 40 45 34.1799 45 27C45 19.8201 39.8658 14 35.4878 14Z" fill="#FF8C3C"/>
<path d="M24 14V13.716C24 10.2455 26.3686 7.17486 29.8935 6.07786C30.7366 5.81485 31.6381 6.24016 31.9172 7.02248C32.1972 7.80567 31.7444 8.65221 30.906 8.91318C28.6886 9.60355 27.1999 11.5331 27.1999 13.716V14" fill="#7DC288"/>
<path d="M38.5 25C38.224 25 38 25.448 38 26C38 26.552 38.224 27 38.5 27C38.776 27 39 26.552 39 26C39 25.448 38.776 25 38.5 25Z" fill="#404040"/>
<path d="M35.5898 12.8273C34.6708 12.8273 33.642 13.0458 32.845 13.3983C32.0179 13.0196 31.1652 12.8273 30.3047 12.8273C29.4936 12.8273 28.7 12.9975 27.9342 13.3332C28.1413 11.6082 29.3469 10.136 31.0645 9.57653C32.3238 9.1666 33.0042 7.83775 32.5835 6.60641C32.1662 5.38303 30.8152 4.70775 29.5446 5.12227C25.8482 6.32609 23.3157 9.60435 23.1124 13.3732C22.2872 13.029 21.3331 12.8273 20.4551 12.8273C19.6343 12.8273 18.8257 13.0034 18.0459 13.35C17.2642 13.0235 16.2923 12.8273 15.4102 12.8273C12.9869 12.8273 10.3315 14.401 8.30666 17.0367C6.17427 19.8124 5 23.3199 5 26.9136C5 30.5074 6.17427 34.0152 8.30666 36.7909C10.3315 39.4266 12.9869 41 15.4102 41C16.2923 41 17.2638 40.8037 18.0459 40.4773C18.8254 40.8242 19.634 41 20.4551 41C21.4514 41 22.5452 40.7408 23.438 40.3073C24.0905 40.7674 24.7818 41 25.5 41C26.2151 41 26.9039 40.7692 27.5539 40.3131C28.4357 40.7686 29.3585 41 30.3047 41C31.1652 41 32.0176 40.8077 32.8437 40.4284C33.6411 40.7811 34.6702 41 35.5898 41C38.0131 41 40.6685 39.4266 42.6933 36.7909C44.8257 34.0152 46 30.5077 46 26.9136C46 23.3199 44.8257 19.8121 42.6933 17.0367C40.6685 14.401 38.0131 12.8273 35.5898 12.8273ZM30.0516 6.60702C30.4739 6.46916 30.9237 6.68987 31.0642 7.10194C31.204 7.51096 30.9794 7.95452 30.5584 8.09147C28.3134 8.823 26.7184 10.7125 26.3721 12.9468C26.0856 12.8676 25.7947 12.8273 25.5 12.8273C25.2507 12.8273 25.0036 12.8566 24.7599 12.9132C25.1284 10.0161 27.1613 7.54825 30.0516 6.60702ZM9.58729 35.8512C7.66197 33.3448 6.60156 30.1708 6.60156 26.9136C6.60156 23.6568 7.66197 20.4825 9.58729 17.9764C11.3112 15.7323 13.488 14.3924 15.4102 14.3924C15.6901 14.3924 15.9904 14.4209 16.2876 14.4716C13.4614 16.8716 11.6465 21.6132 11.6465 26.9136C11.6465 32.2144 13.4614 36.9557 16.2876 39.3557C15.9904 39.4067 15.6904 39.4348 15.4102 39.4348C13.488 39.4348 11.3112 38.0953 9.58729 35.8512ZM18.4303 38.9185C18.429 38.9179 18.4281 38.9173 18.4268 38.9167C15.3776 37.3231 13.248 32.388 13.248 26.9136C13.248 21.4387 15.3779 16.5029 18.4278 14.9103C18.4281 14.91 18.4284 14.91 18.4287 14.9097C18.429 14.9097 18.4294 14.9094 18.4297 14.9094C19.0878 14.5664 19.7691 14.3924 20.4551 14.3924C21.0269 14.3924 21.655 14.5098 22.2184 14.7094C20.2965 17.1587 19.0938 21.7648 19.0938 26.9136C19.0938 32.0624 20.2968 36.6689 22.2184 39.1181C21.655 39.3178 21.0269 39.4348 20.4551 39.4348C19.7691 39.4348 19.0878 39.2612 18.4303 38.9185ZM24.0623 38.7883C22.0485 36.9847 20.6953 32.2125 20.6953 26.9136C20.6953 21.6151 22.0485 16.8429 24.062 15.0393C24.4659 14.6783 24.957 14.3924 25.5 14.3924C26.044 14.3924 26.5363 14.6798 26.9377 15.039C28.9515 16.8429 30.3047 21.6151 30.3047 26.9136C30.3047 32.2125 28.9515 36.9844 26.9377 38.7883C26.4587 39.2175 25.9752 39.4348 25.5 39.4348C25.0248 39.4348 24.5413 39.2175 24.0623 38.7883ZM41.4127 35.8512C39.6888 38.0953 37.512 39.4348 35.5898 39.4348C35.2592 39.4348 34.9067 39.3969 34.5642 39.3294C37.3544 37.0064 38.8349 32.981 39.225 29.3405C39.2709 28.9107 38.9519 28.5259 38.5121 28.4806C38.072 28.436 37.6781 28.7478 37.6321 29.1776C37.1545 33.6371 35.1238 37.4396 32.4587 38.865C31.752 39.2432 31.0273 39.4348 30.3047 39.4348C29.7848 39.4348 29.2696 39.3355 28.7654 39.1389C30.6963 36.6949 31.9062 32.0771 31.9062 26.9136C31.9062 21.7502 30.6963 17.1324 28.7651 14.6886C29.2696 14.4921 29.7845 14.3924 30.3047 14.3924C31.0279 14.3924 31.7536 14.5841 32.4627 14.9625C34.8185 16.2162 36.7166 19.3566 37.4163 23.1582C37.4858 23.5366 37.8233 23.8023 38.2033 23.8023C38.2506 23.8023 38.2981 23.7983 38.346 23.7898C38.7814 23.7133 39.0707 23.3065 38.9925 22.8812C38.3297 19.2786 36.7216 16.266 34.5751 14.4958C34.9142 14.4297 35.2626 14.3924 35.5898 14.3924C37.512 14.3924 39.6885 15.7323 41.4127 17.9764C43.338 20.4825 44.3984 23.6568 44.3984 26.9136C44.3984 30.1708 43.338 33.3448 41.4127 35.8512Z" fill="black"/>
<path d="M35.5898 12.8273C34.6708 12.8273 33.642 13.0458 32.845 13.3983C32.0179 13.0196 31.1652 12.8273 30.3047 12.8273C29.4936 12.8273 28.7 12.9975 27.9342 13.3332C28.1413 11.6082 29.3469 10.136 31.0645 9.57653C32.3238 9.1666 33.0042 7.83775 32.5835 6.60641C32.1662 5.38303 30.8152 4.70775 29.5446 5.12227C25.8482 6.32609 23.3157 9.60435 23.1124 13.3732C22.2872 13.029 21.3331 12.8273 20.4551 12.8273C19.6343 12.8273 18.8257 13.0034 18.0459 13.35C17.2642 13.0235 16.2923 12.8273 15.4102 12.8273C12.9869 12.8273 10.3315 14.401 8.30666 17.0367C6.17427 19.8124 5 23.3199 5 26.9136C5 30.5074 6.17427 34.0152 8.30666 36.7909C10.3315 39.4266 12.9869 41 15.4102 41C16.2923 41 17.2638 40.8037 18.0459 40.4773C18.8254 40.8242 19.634 41 20.4551 41C21.4514 41 22.5452 40.7408 23.438 40.3073C24.0905 40.7674 24.7818 41 25.5 41C26.2151 41 26.9039 40.7692 27.5539 40.3131C28.4357 40.7686 29.3585 41 30.3047 41C31.1652 41 32.0176 40.8077 32.8437 40.4284C33.6411 40.7811 34.6702 41 35.5898 41C38.0131 41 40.6685 39.4266 42.6933 36.7909C44.8257 34.0152 46 30.5077 46 26.9136C46 23.3199 44.8257 19.8121 42.6933 17.0367C40.6685 14.401 38.0131 12.8273 35.5898 12.8273ZM30.0516 6.60702C30.4739 6.46916 30.9237 6.68987 31.0642 7.10194C31.204 7.51096 30.9794 7.95452 30.5584 8.09147C28.3134 8.823 26.7184 10.7125 26.3721 12.9468C26.0856 12.8676 25.7947 12.8273 25.5 12.8273C25.2507 12.8273 25.0036 12.8566 24.7599 12.9132C25.1284 10.0161 27.1613 7.54825 30.0516 6.60702ZM9.58729 35.8512C7.66197 33.3448 6.60156 30.1708 6.60156 26.9136C6.60156 23.6568 7.66197 20.4825 9.58729 17.9764C11.3112 15.7323 13.488 14.3924 15.4102 14.3924C15.6901 14.3924 15.9904 14.4209 16.2876 14.4716C13.4614 16.8716 11.6465 21.6132 11.6465 26.9136C11.6465 32.2144 13.4614 36.9557 16.2876 39.3557C15.9904 39.4067 15.6904 39.4348 15.4102 39.4348C13.488 39.4348 11.3112 38.0953 9.58729 35.8512ZM18.4303 38.9185C18.429 38.9179 18.4281 38.9173 18.4268 38.9167C15.3776 37.3231 13.248 32.388 13.248 26.9136C13.248 21.4387 15.3779 16.5029 18.4278 14.9103C18.4281 14.91 18.4284 14.91 18.4287 14.9097C18.429 14.9097 18.4294 14.9094 18.4297 14.9094C19.0878 14.5664 19.7691 14.3924 20.4551 14.3924C21.0269 14.3924 21.655 14.5098 22.2184 14.7094C20.2965 17.1587 19.0938 21.7648 19.0938 26.9136C19.0938 32.0624 20.2968 36.6689 22.2184 39.1181C21.655 39.3178 21.0269 39.4348 20.4551 39.4348C19.7691 39.4348 19.0878 39.2612 18.4303 38.9185ZM24.0623 38.7883C22.0485 36.9847 20.6953 32.2125 20.6953 26.9136C20.6953 21.6151 22.0485 16.8429 24.062 15.0393C24.4659 14.6783 24.957 14.3924 25.5 14.3924C26.044 14.3924 26.5363 14.6798 26.9377 15.039C28.9515 16.8429 30.3047 21.6151 30.3047 26.9136C30.3047 32.2125 28.9515 36.9844 26.9377 38.7883C26.4587 39.2175 25.9752 39.4348 25.5 39.4348C25.0248 39.4348 24.5413 39.2175 24.0623 38.7883ZM41.4127 35.8512C39.6888 38.0953 37.512 39.4348 35.5898 39.4348C35.2592 39.4348 34.9067 39.3969 34.5642 39.3294C37.3544 37.0064 38.8349 32.981 39.225 29.3405C39.2709 28.9107 38.9519 28.5259 38.5121 28.4806C38.072 28.436 37.6781 28.7478 37.6321 29.1776C37.1545 33.6371 35.1238 37.4396 32.4587 38.865C31.752 39.2432 31.0273 39.4348 30.3047 39.4348C29.7848 39.4348 29.2696 39.3355 28.7654 39.1389C30.6963 36.6949 31.9062 32.0771 31.9062 26.9136C31.9062 21.7502 30.6963 17.1324 28.7651 14.6886C29.2696 14.4921 29.7845 14.3924 30.3047 14.3924C31.0279 14.3924 31.7536 14.5841 32.4627 14.9625C34.8185 16.2162 36.7166 19.3566 37.4163 23.1582C37.4858 23.5366 37.8233 23.8023 38.2033 23.8023C38.2506 23.8023 38.2981 23.7983 38.346 23.7898C38.7814 23.7133 39.0707 23.3065 38.9925 22.8812C38.3297 19.2786 36.7216 16.266 34.5751 14.4958C34.9142 14.4297 35.2626 14.3924 35.5898 14.3924C37.512 14.3924 39.6885 15.7323 41.4127 17.9764C43.338 20.4825 44.3984 23.6568 44.3984 26.9136C44.3984 30.1708 43.338 33.3448 41.4127 35.8512Z" fill="#404040"/>
</svg>
