<svg width="108" height="108" viewBox="0 0 108 108" fill="none" xmlns="http://www.w3.org/2000/svg">
<g clip-path="url(#clip0)">
<path d="M100.7 87.8486C100.7 109.028 79.8672 107.813 54 107.813C28.1328 107.813 7.30011 108.855 7.30011 87.8486C7.30011 66.6687 28.1328 31.4268 54 31.4268C79.8672 31.6004 100.7 66.8423 100.7 87.8486Z" fill="#F2B233"/>
<path d="M54 31.6003C79.8672 31.6003 100.7 66.8423 100.7 88.0221C100.7 109.202 79.8672 107.987 54 107.987" fill="#DD981D"/>
<path d="M31.2577 9.72635C31.2577 -0.516379 41.5004 0.00443773 54 0.00443773C66.4996 0.00443773 76.7423 -0.516379 76.7423 9.72635C76.7423 19.9691 66.4996 37.156 54 37.156C41.5004 37.156 31.2577 19.9691 31.2577 9.72635Z" fill="#F2B233"/>
<path d="M54 0.00443773C66.4996 0.00443773 76.7423 -0.516379 76.7423 9.72635C76.7423 19.9691 66.4996 37.156 54 37.156" fill="#DD981D"/>
<path d="M73.9646 33.5103C73.9646 35.2463 72.5758 36.6352 70.8397 36.6352H37.1603C35.4242 36.6352 34.0354 35.2463 34.0354 33.5103V32.6422C34.0354 30.9062 35.4242 29.5173 37.1603 29.5173H71.0133C72.7494 29.5173 74.1382 30.9062 74.1382 32.6422V33.5103H73.9646Z" fill="#04AF76"/>
<path d="M36.6394 29.6909H71.0133C72.7494 29.6909 74.1382 31.0798 74.1382 32.8158V33.6838C74.1382 35.4199 72.4022 36.8087 70.6661 36.8087" fill="#008C61"/>
</g>
<defs>
<clipPath id="clip0">
<rect width="108" height="108" fill="white"/>
</clipPath>
</defs>
</svg>
