<svg width="45" height="47" viewBox="0 0 45 47" fill="none" xmlns="http://www.w3.org/2000/svg">
<path d="M22.5 44.7705C34.9264 44.7705 45 34.8914 45 22.7048C45 10.5183 34.9264 0.63916 22.5 0.63916C10.0736 0.63916 0 10.5183 0 22.7048C0 34.8914 10.0736 44.7705 22.5 44.7705Z" fill="#FFF5DB"/>
<path d="M30.3052 36.7477H30.3004C29.8123 36.3853 29.3011 36.063 28.7628 35.7722C28.7489 35.7633 28.7353 35.7544 28.7171 35.7499C26.1708 34.3717 24.4462 31.7135 24.4462 28.6572L20.5904 28.6392C20.5904 31.7045 18.8519 34.3761 16.2829 35.7497C16.2829 35.7497 16.2784 35.7497 16.2738 35.7541C15.7307 36.045 15.2107 36.3717 14.7178 36.7296C11.5236 39.0611 9.45667 42.7886 9.45667 46.9951H35.5433C35.5436 42.7978 33.4857 39.0789 30.3052 36.7477Z" fill="#ECC19C"/>
<path d="M35.5433 46.9932H9.45642C9.45642 42.7868 11.5234 39.0593 14.7175 36.7279C15.2105 36.37 15.7304 36.0433 16.2734 35.7525C16.2781 35.748 16.2827 35.748 16.2827 35.748C16.7024 35.5198 17.104 35.2601 17.4735 34.9648C18.7512 36.2492 20.5354 37.0458 22.5112 37.0458C24.4825 37.0458 26.2622 36.2492 27.5396 34.9693C27.9046 35.2646 28.3019 35.5242 28.7168 35.748C28.735 35.7525 28.7489 35.7614 28.7625 35.7703C29.3009 36.0611 29.812 36.3834 30.3002 36.7458H30.305C33.4855 39.0772 35.5433 42.7957 35.5433 46.9932Z" fill="#FEC45E"/>
<path d="M12.4889 9.57324V19.6207C12.4889 26.4172 18.5728 31.9268 22.5002 31.9268C26.4272 31.9268 32.5116 26.4172 32.5116 19.6207V9.57324H12.4889Z" fill="#ECC19C"/>
<path d="M30.8807 7.72377C28.6987 5.04448 25.3864 3.33154 21.6813 3.33154C15.099 3.33154 9.76807 8.71968 9.76807 15.3643C9.76807 18.891 11.267 22.0622 13.6604 24.2613C13.0438 22.7438 12.6994 21.0428 12.6994 19.2466C12.6994 16.36 13.5939 13.7163 15.0808 11.6832C16.6584 12.371 19.2152 12.6198 22.0195 12.2405C24.7999 11.8671 27.1692 10.9662 28.5049 9.89338C30.9409 12.0034 32.5245 15.4058 32.5245 19.2466C32.5245 21.2145 32.1134 23.0639 31.376 24.688C33.7271 23.7336 35.4558 20.3314 35.4558 16.2828C35.4558 11.9499 33.4733 8.37582 30.8807 7.72377Z" fill="#494846"/>
</svg>
