<svg width="43" height="43" viewBox="0 0 43 43" fill="none" xmlns="http://www.w3.org/2000/svg">
<path d="M21.5 0C9.62587 0 0 9.62587 0 21.5001C0 25.9938 1.37953 30.1651 3.73705 33.615L0.912994 42.087L9.38509 39.263C12.835 41.6205 17.0061 43 21.5 43C33.3741 43 43 33.3741 43 21.5001C43 9.62587 33.3741 0 21.5 0Z" fill="#FFD15C"/>
<path d="M31.5566 27.929C29.9335 26.306 28.1951 24.9396 28.1951 24.9396L25.6623 27.4725L15.5276 17.3378L18.0605 14.805C18.0605 14.805 16.6942 13.0665 15.0712 11.4434C13.4481 9.82044 11.7097 8.4541 11.7097 8.4541C11.7097 8.4541 8.67474 11.2461 8.47066 13.4604C8.19754 16.4245 11.335 21.8134 16.2609 26.7393C21.1867 31.6651 26.5756 34.8026 29.5396 34.5294C31.7541 34.3252 34.546 31.2905 34.546 31.2905C34.546 31.2905 33.1796 29.5522 31.5566 27.929Z" fill="#40596B"/>
</svg>
