<svg width="165" height="165" viewBox="0 0 165 165" fill="none" xmlns="http://www.w3.org/2000/svg">
<g clip-path="url(#clip0)">
<path d="M55.3465 61.751C49.4906 59.0153 42.8864 58.3256 36.5924 59.7931C32.3445 61.2772 28.4989 63.7242 25.3558 66.9427C20.6073 71.2059 16.3351 75.9724 12.6172 81.1577C8.62606 86.4797 5.36287 92.31 2.91324 98.4941C0.360163 106.222 -0.530029 114.403 0.302691 122.497C0.869758 131.748 2.11884 141.82 6.51616 150.105C11.0208 158.405 20.1577 163.092 29.5271 161.909C33.3471 161.537 37.1148 160.748 40.7624 159.553L55.3465 61.751Z" fill="#F29C1F"/>
<path d="M124.379 159.61C127.98 160.786 131.701 161.556 135.473 161.909C144.842 163.093 153.979 158.405 158.484 150.105C162.881 141.82 164.13 131.748 164.697 122.497C165.53 114.403 164.64 106.222 162.087 98.4942C159.637 92.3101 156.374 86.4798 152.384 81.1578C148.665 75.9724 144.393 71.206 139.644 66.9428C136.501 63.7243 132.655 61.2772 128.407 59.7931C122.193 58.3129 115.657 58.9936 109.881 61.7229L124.379 159.61Z" fill="#F29C1F"/>
<path d="M62.9789 56.9552C62.9789 56.9552 68.3533 30.0897 105.255 2.49885C107.113 1.12588 109.655 1.13866 111.498 2.53333L111.827 2.77983C113.258 3.87054 114.03 5.619 113.872 7.41215C113.715 9.20403 112.648 10.7916 111.049 11.6153C102.628 16.1723 92.1918 27.7653 99.6378 56.9552L88.2888 82.4911L62.9789 56.9552Z" fill="#527F72"/>
<path d="M78.6984 62.0625C76.0304 60.5874 68.9369 56.9551 64.4541 56.9551C63.9751 56.9538 63.4974 57.0202 63.0364 57.1543C62.6622 57.2156 62.2995 57.3306 61.9572 57.4953C59.9699 58.3766 58.1078 59.5222 56.4244 60.899C56.0464 61.1583 55.6862 61.4431 55.3465 61.7509C51.4141 64.8608 47.8699 68.4331 44.7919 72.3911C36.6205 82.5714 30.8937 94.4914 28.0519 107.232C24.5333 123.916 21.9228 145.905 37.3868 157.368C38.4597 158.175 39.5874 158.906 40.7624 159.553C43.0818 160.96 45.5454 162.11 48.1113 162.986C56.9008 165.319 66.1399 165.367 74.9525 163.128L78.6984 62.0625Z" fill="#E57E25"/>
<path d="M86.5288 62.0625C90.5966 59.6819 95.0233 57.9768 99.6378 57.0126C100.035 56.9845 100.404 56.9551 100.772 56.9551C101.631 56.9704 102.479 57.1543 103.269 57.4953C105.257 58.3766 107.118 59.5222 108.802 60.899C109.171 61.1544 109.54 61.4392 109.881 61.7228C113.807 64.8493 117.35 68.4305 120.435 72.3911C135.092 91.3073 141.762 115.21 139.02 138.983C138.025 146.404 133.971 153.07 127.84 157.368C126.739 158.194 125.582 158.943 124.379 159.61C122.088 160.998 119.652 162.129 117.116 162.986C108.326 165.319 99.0873 165.367 90.2748 163.128L86.5288 62.0625Z" fill="#E57E25"/>
<path d="M82.2988 63.4534C80.8683 63.4509 79.664 62.3857 79.4864 60.968C78.2872 52.4327 79.4724 43.7325 82.9118 35.8294C83.6104 34.427 85.3155 33.8574 86.7178 34.556C88.1202 35.2559 88.6898 36.9597 87.9899 38.3633C85.0434 45.2626 84.0485 52.8401 85.1162 60.2669C85.3104 61.8212 84.2069 63.2389 82.6538 63.433C82.5351 63.447 82.4176 63.4547 82.2988 63.4534Z" fill="#14A085"/>
<path d="M42.8915 34.2571C42.8915 34.2571 45.7281 20.0703 54.2405 17.2336C54.2405 17.2336 37.2157 22.9081 31.5412 17.2336C31.5412 17.2336 25.8667 28.5826 14.5177 25.7448C14.5177 25.7448 17.3556 42.7695 3.16868 45.6061C3.16868 45.6061 23.0301 45.6061 23.0301 51.2806C23.0301 51.2806 31.5412 39.9316 42.8915 45.6061V34.2571Z" fill="#71C285"/>
<path d="M82.613 164.775H85.4138C91.0692 164.775 95.501 158.011 97.9608 153.709C103.708 142.884 107.054 130.947 107.772 118.713C109.174 106.395 107.483 93.9206 102.852 82.4209C99.2904 73.8842 93.2889 66.5864 85.6016 61.4419C83.7714 60.3091 81.4584 60.3091 79.6282 61.4419C71.9409 66.5864 65.9407 73.8842 62.3774 82.4209C57.7463 93.9206 56.0553 106.395 57.4577 118.713C58.1755 130.947 61.5204 142.884 67.2664 153.709C69.7262 158.016 74.1581 164.775 79.8134 164.775H82.613Z" fill="#F29C1F"/>
<path d="M68.4274 125.134C66.8603 125.134 65.5895 123.864 65.5895 122.297V116.539C65.5895 114.972 66.8603 113.703 68.4274 113.703C69.9944 113.703 71.264 114.972 71.264 116.539V122.297C71.264 123.864 69.9944 125.134 68.4274 125.134Z" fill="#F3D55B"/>
<path d="M68.4274 108.028C66.8603 108.028 65.5895 106.757 65.5895 105.19C65.5895 90.3879 74.1414 75.966 74.5067 75.3555C75.3292 74.0515 77.0432 73.6415 78.3663 74.4346C79.6895 75.2277 80.1365 76.9328 79.3728 78.2725C79.291 78.4118 71.264 91.9856 71.264 105.19C71.264 106.757 69.9945 108.028 68.4274 108.028Z" fill="#F3D55B"/>
<path d="M61.9572 60.3321C60.7643 60.3321 59.6979 59.585 59.2904 58.4623C57.4232 53.3268 51.9875 40.942 41.8378 36.8985C40.4227 36.2931 39.7496 34.6685 40.3192 33.2393C40.8901 31.8089 42.4968 31.095 43.9413 31.6301C56.2201 36.5294 62.4974 50.6767 64.6252 56.5325C64.9419 57.4035 64.8142 58.3729 64.2829 59.1316C63.7516 59.8902 62.8831 60.3411 61.9572 60.3411V60.3321Z" fill="#4C8056"/>
<path d="M103.269 60.3321C102.339 60.3321 101.468 59.8774 100.938 59.1124C100.408 58.3486 100.285 57.3729 100.611 56.5018C103.851 47.8055 112.209 32.6684 123.516 29.1702C123.921 27.7806 124.407 26.4153 124.974 25.0845C128.811 15.8314 135.473 4.06217 145.46 0.696806C146.144 0.479686 146.846 0.320039 147.557 0.222973C149.089 0.0952551 150.444 1.21023 150.614 2.73774C150.784 4.26524 149.706 5.6497 148.185 5.86171C147.861 5.91152 147.543 5.98815 147.233 6.08777C138.901 8.90012 132.987 20.5722 130.21 27.2825C130.045 27.6657 129.892 28.0514 129.745 28.4384C131.935 28.5636 134.101 28.9697 136.188 29.6466C139.966 30.7526 143.445 32.6991 146.362 35.3415C148.09 36.8844 149.375 38.8614 150.082 41.0671C150.924 43.7441 150.37 46.665 148.607 48.849C147.469 50.1159 146.01 51.0508 144.382 51.554C138.249 53.5975 131.488 51.9844 126.939 47.3917C123.923 44.3073 122.301 40.1246 122.449 35.8154C115.002 40.0313 108.685 51.0828 105.925 58.4942C105.509 59.6003 104.451 60.3321 103.269 60.3321ZM128.238 34.0988C127.619 37.4744 128.648 40.9432 131.007 43.4363C134.023 46.4351 138.463 47.4964 142.51 46.1848C143.174 45.9996 143.781 45.6496 144.274 45.1669C144.789 44.4376 144.92 43.5065 144.629 42.6636C144.191 41.4222 143.436 40.3174 142.439 39.4579C140.145 37.4118 137.418 35.9099 134.463 35.0631C132.459 34.4015 130.359 34.0771 128.249 34.1014L128.238 34.0988Z" fill="#4C8056"/>
</g>
<defs>
<clipPath id="clip0">
<rect width="165" height="165" fill="white"/>
</clipPath>
</defs>
</svg>
