<svg width="171" height="124" viewBox="0 0 171 124" fill="none" xmlns="http://www.w3.org/2000/svg">
<path d="M71.281 119.249V104.034C69.6498 104.781 67.839 105.2 65.9309 105.2C64.0683 105.2 62.2457 104.782 60.5808 104.016V119.249H71.281Z" fill="#32569D"/>
<path d="M138.511 119.249V104.018C137.139 104.657 135.639 105.061 134.058 105.17C133.759 105.19 133.458 105.2 133.161 105.2C133.161 105.2 133.161 105.2 133.161 105.2C131.253 105.2 129.442 104.781 127.811 104.034V119.249H138.511Z" fill="#32569D"/>
<path d="M117.232 119.249V104.513C116.002 104.96 114.691 105.2 113.348 105.2H110.416C109.053 105.2 107.745 104.96 106.532 104.52V119.249H117.232Z" fill="#32569D"/>
<path d="M120.256 92.2956C120.256 91.2312 119.39 90.3655 118.326 90.3655H98.6433V93.7621C98.6433 100.237 103.941 105.534 110.416 105.534H113.348C117.387 105.534 120.967 103.473 123.09 100.351C121.319 98.1413 120.256 95.3408 120.256 92.2956Z" fill="#EDCAB2"/>
<path d="M107.828 93.7621V90.3655H98.6433V93.7621C98.6433 100.237 103.941 105.534 110.416 105.534H113.348C114.43 105.534 115.477 105.383 116.474 105.107C111.504 103.729 107.828 99.155 107.828 93.7621Z" fill="#EDC9B1"/>
<path d="M50.0024 119.249V104.016C48.3375 104.782 46.515 105.2 44.6523 105.2C42.7443 105.2 40.9334 104.781 39.3022 104.034V119.249H50.0024Z" fill="#32569D"/>
<path d="M162.69 62.3542C166.283 58.6313 168.495 53.5674 168.495 47.9842C168.495 39.9786 163.95 33.0391 157.301 29.593C156.726 29.2948 156.387 28.6859 156.44 28.04C156.484 27.5009 156.507 26.9562 156.507 26.4058C156.507 14.9688 147.236 5.69778 135.799 5.69778C132.524 5.69778 129.428 6.46193 126.676 7.8169C126.001 8.14922 125.196 7.98123 124.712 7.40477C120.914 2.87861 115.217 0 108.845 0C104.147 0 99.8176 1.56839 96.3431 4.20553C95.7647 4.64472 94.9728 4.64472 94.3943 4.20553C90.9202 1.56839 86.5904 0 81.8919 0C76.792 0 72.1246 1.84526 68.5165 4.90289C73.4194 6.38578 77.0699 10.7707 77.4416 16.0737C77.5976 18.2963 77.1714 20.517 76.2099 22.4952L75.9764 22.9751H87.067C88.0613 22.9751 88.9597 23.4417 89.5332 24.2553C90.104 25.0655 90.2406 26.0641 89.9079 26.995C88.0737 32.128 83.1768 35.5767 77.7232 35.5767C76.3618 35.5767 75.0155 35.3633 73.722 34.9428L73.2848 34.8005V52.5003C73.2848 67.2124 61.3158 79.1814 46.6038 79.1814C40.9625 79.1814 35.728 77.4166 31.4132 74.4171V92.2959C31.4132 99.5771 37.3705 105.535 44.652 105.535C48.9995 105.535 52.874 103.41 55.2914 100.149C57.7088 103.41 61.583 105.535 65.9308 105.535C73.212 105.535 79.1696 99.5774 79.1696 92.2959C79.1696 91.4145 79.8844 90.6998 80.7657 90.6998H118.326C119.207 90.6998 119.922 91.4145 119.922 92.2959C119.922 99.8817 126.388 106.03 134.08 105.503C141.062 105.024 146.399 99.0538 146.399 92.0561V91.4062C146.399 90.611 146.985 89.9333 147.772 89.8278C156.859 88.6077 163.867 80.8269 163.867 71.4062C163.867 68.8141 163.333 66.3477 162.374 64.1066C162.119 63.5088 162.239 62.8215 162.69 62.3542Z" fill="#F5E2D4"/>
<path d="M41.4331 92.2955V79.0096C37.781 78.2942 34.386 76.8391 31.4136 74.8044V92.2955C31.4136 99.5767 37.3709 105.534 44.6524 105.534C46.4222 105.534 48.1111 105.177 49.6575 104.54C44.8441 102.553 41.4331 97.8043 41.4331 92.2955Z" fill="#EDCAB2"/>
<path d="M92.0023 119.249V114.74C92.0023 113.357 90.8811 112.235 89.4974 112.235C88.1137 112.235 86.9926 113.357 86.9926 114.74V119.249H92.0023Z" fill="#09A76D"/>
<path d="M159.133 119.249V114.74C159.133 113.357 158.012 112.235 156.628 112.235C155.245 112.235 154.123 113.357 154.123 114.74V119.249H159.133Z" fill="#09A76D"/>
<path d="M32.2191 119.249V114.74C32.2191 113.357 31.0976 112.235 29.7142 112.235C28.3309 112.235 27.2094 113.357 27.2094 114.74V119.249H32.2191Z" fill="#09A76D"/>
<path d="M87.0673 22.6411H76.14L73.2848 26.3707V35.1475C74.6728 35.6401 76.1664 35.9106 77.7234 35.9106C83.485 35.9106 88.3889 32.2388 90.2225 27.1075C91.0003 24.9309 89.3782 22.6411 87.0673 22.6411Z" fill="#303A78"/>
<path d="M17.0676 22.6411H6.14068C3.82984 22.6411 2.20768 24.9309 2.98553 27.1072C4.8191 32.2385 9.72299 35.9103 15.4846 35.9103C17.0416 35.9103 18.5348 35.6398 19.9229 35.1472V26.3704L17.0676 22.6411Z" fill="#32569D"/>
<path d="M64.8518 29.6063C61.9648 29.6063 59.2475 28.6571 56.9938 26.8613C56.6341 26.5747 56.1845 26.4164 55.728 26.4164C55.2714 26.4164 54.8219 26.5744 54.4622 26.8613C52.2081 28.6571 49.4912 29.6063 46.6042 29.6063C43.7169 29.6063 40.9999 28.6571 38.7462 26.8613C38.3865 26.5747 37.937 26.4164 37.4804 26.4164C37.0239 26.4164 36.5743 26.5744 36.2143 26.8613C33.9605 28.6571 31.2433 29.6063 28.3563 29.6063C25.0899 29.6063 21.9318 28.3225 19.5889 26.0637V52.4996C19.5889 67.3579 31.7456 79.5146 46.6042 79.5146C61.4625 79.5146 73.6192 67.3579 73.6192 52.4996V26.0637C71.2766 28.3228 68.1178 29.6063 64.8518 29.6063Z" fill="#32569D"/>
<path d="M27.1032 52.5V29.5425C24.2914 29.2593 21.6302 28.0326 19.5889 26.0641V52.5C19.5889 67.3583 31.7456 79.5149 46.6042 79.5149C47.879 79.5149 49.1325 79.4211 50.3609 79.2461C37.265 77.4022 27.1032 66.0831 27.1032 52.5Z" fill="#303A78"/>
<path d="M35.1368 51.8881C33.7535 51.8881 32.632 50.7666 32.632 49.3832V44.1704C32.632 42.787 33.7535 41.6655 35.1368 41.6655C36.5202 41.6655 37.6417 42.787 37.6417 44.1704V49.3832C37.6417 50.7666 36.5202 51.8881 35.1368 51.8881Z" fill="#303A78"/>
<path d="M58.0712 51.8881C56.6879 51.8881 55.5663 50.7666 55.5663 49.3832V44.1704C55.5663 42.787 56.6879 41.6655 58.0712 41.6655C59.4546 41.6655 60.5761 42.787 60.5761 44.1704V49.3832C60.5761 50.7666 59.4546 51.8881 58.0712 51.8881Z" fill="#303A78"/>
<path d="M56.231 64.0301C55.2527 63.0519 53.6666 63.0519 52.6887 64.0301C51.6544 65.0644 50.42 65.7785 49.1091 66.1753V60.9985L52.2285 58.7321C53.3477 57.9188 53.5958 56.3525 52.7826 55.2333C51.9696 54.1141 50.4033 53.8659 49.2837 54.6792L46.6042 56.626L43.9243 54.6789C42.8051 53.8653 41.2384 54.1141 40.4255 55.2333C39.6126 56.3525 39.8607 57.9188 40.9799 58.7321L44.0993 60.9985V66.1753C42.7884 65.7785 41.554 65.0644 40.5197 64.0301C39.5414 63.0519 37.9553 63.0519 36.9774 64.0301C35.9992 65.0083 35.9992 66.5944 36.9774 67.5723C39.6316 70.2265 43.1181 71.5534 46.6045 71.5534C50.0907 71.5534 53.5771 70.2265 56.2313 67.5723C57.2092 66.5944 57.2092 65.0083 56.231 64.0301Z" fill="#303A78"/>
<path d="M65.5492 4.04649C62.2287 3.87249 59.1637 4.94992 56.7824 6.84895C56.1615 7.34392 55.2918 7.34125 54.671 6.84662C52.4576 5.08284 49.6545 4.02846 46.6042 4.02846C43.5543 4.02846 40.7508 5.08284 38.5375 6.84662C37.9166 7.34158 37.0469 7.34425 36.4261 6.84895C34.0444 4.94992 30.9794 3.87249 27.6586 4.04649C21.183 4.38615 15.8863 9.58228 15.4331 16.0509C14.9024 23.6283 20.8924 29.9406 28.3567 29.9406C31.4066 29.9406 34.2097 28.8862 36.4227 27.1228C37.0453 26.6268 37.916 26.6268 38.5382 27.1228C40.7515 28.8862 43.5546 29.9406 46.6042 29.9406C49.6542 29.9406 52.4573 28.8862 54.6703 27.1228C55.2928 26.6268 56.1635 26.6268 56.7857 27.1228C58.9991 28.8862 61.8022 29.9406 64.8518 29.9406C72.3163 29.9406 78.3064 23.6283 77.775 16.0506C77.3218 9.58195 72.0248 4.38615 65.5492 4.04649Z" fill="#EDCAB2"/>
<path d="M25.4523 16.0509C25.7993 11.0956 28.9908 6.8897 33.3754 5.03909C31.631 4.305 29.6929 3.93962 27.6579 4.04649C21.1823 4.38615 15.8856 9.58228 15.4324 16.0509C14.9017 23.6283 20.8917 29.9406 28.3559 29.9406C30.1331 29.9406 31.8254 29.5806 33.367 28.9327C28.4317 26.8613 25.0478 21.8251 25.4523 16.0509Z" fill="#EDC9B1"/>
<path d="M168.495 118.915H150.116V114.74C150.116 113.357 148.994 112.235 147.611 112.235C146.227 112.235 145.106 113.357 145.106 114.74V118.915H101.02V114.74C101.02 113.357 99.8987 112.235 98.515 112.235C97.1313 112.235 96.0102 113.357 96.0102 114.74V118.915H82.9848V114.74C82.9848 113.357 81.8632 112.235 80.4799 112.235C79.0965 112.235 77.975 113.357 77.975 114.74V118.915H23.2016V114.74C23.2016 113.357 22.08 112.235 20.6967 112.235C19.3133 112.235 18.1918 113.357 18.1918 114.74V118.915H14.184V114.74C14.184 113.357 13.0625 112.235 11.6791 112.235C10.2957 112.235 9.17422 113.357 9.17422 114.74V118.915H2.50488C1.12152 118.915 0 120.037 0 121.42C0 122.803 1.12152 123.925 2.50488 123.925H168.495C169.879 123.925 171 122.803 171 121.42C171 120.037 169.879 118.915 168.495 118.915Z" fill="#8BC727"/>
</svg>
