<svg width="43" height="43" viewBox="0 0 43 43" fill="none" xmlns="http://www.w3.org/2000/svg">
<path d="M21.5 42.9998C33.3741 42.9998 43 40.3444 43 37.0687C43 33.7931 33.3741 31.1377 21.5 31.1377C9.62588 31.1377 0 33.7931 0 37.0687C0 40.3444 9.62588 42.9998 21.5 42.9998Z" fill="#F8B64C"/>
<path d="M30.8977 3.94722C25.6354 -1.31509 17.1029 -1.31509 11.8398 3.94722C7.09796 8.68908 6.5649 17.6175 10.5884 22.9829L21.3688 38.5518L32.1492 22.9829C36.1734 17.6175 35.6396 8.68908 30.8977 3.94722ZM21.5 17.7932C19.0431 17.7932 17.0517 15.8019 17.0517 13.3449C17.0517 10.888 19.0431 8.89667 21.5 8.89667C23.9569 8.89667 25.9483 10.888 25.9483 13.3449C25.9483 15.8019 23.9569 17.7932 21.5 17.7932Z" fill="#FF7058"/>
</svg>
