<svg width="141" height="141" viewBox="0 0 141 141" fill="none" xmlns="http://www.w3.org/2000/svg">
<path d="M11.7504 66.9297L18.7997 104.53H122.2L129.25 66.9297H11.7504Z" fill="#7F5B53"/>
<path d="M107.931 31.3801C106.446 31.3785 104.973 31.5724 103.579 31.9529C100.473 29.4543 96.1354 27.9957 91.5551 27.9091C88.5727 27.9313 85.6598 28.5812 83.156 29.7832C75.9659 24.9704 65.0341 24.9704 57.844 29.7832C55.3402 28.5812 52.4273 27.9313 49.4448 27.9091C44.8646 27.9957 40.5274 29.4543 37.4207 31.9529C36.0274 31.5724 34.5538 31.3785 33.0685 31.3801C22.7289 31.3801 14.3533 40.7 14.3533 52.2062C14.3544 53.9508 14.5503 55.6923 14.938 57.4131H126.062C126.45 55.6923 126.646 53.9508 126.647 52.2062C126.647 40.7 118.271 31.3801 107.931 31.3801Z" fill="#F29C1F"/>
<path d="M61.4215 57.4131H49.0518C47.8745 54.6079 47.2822 51.6803 47.2978 48.7353C46.9985 41.5606 50.8162 34.6417 57.754 29.7836C61.1629 27.4963 65.5354 26.2157 70.0778 26.1736C62.9555 35.6355 59.9272 46.5656 61.4215 57.4131Z" fill="#F29C1F"/>
<path d="M46.64 48.7215C46.6239 51.6712 47.2342 54.6035 48.4472 57.4132H28.8961C28.1988 55.1319 27.8518 52.7988 27.8625 50.4601C27.8625 42.7766 31.4543 35.9803 36.923 31.9126C40.0399 29.41 44.3913 27.949 48.9865 27.8623C51.9788 27.8846 54.9012 28.5355 57.4132 29.7394C50.2651 34.6053 46.3317 41.5353 46.64 48.7215Z" fill="#E57E25"/>
<path d="M28.2248 50.4336C28.2142 52.7812 28.5561 55.1231 29.2429 57.4132H14.9311C14.548 55.683 14.3543 53.9322 14.3533 52.1781C14.3533 40.6097 22.6305 31.2395 32.8486 31.2395C34.3165 31.2379 35.7728 31.4328 37.1497 31.8154C31.7628 35.8987 28.2248 42.7208 28.2248 50.4336Z" fill="#F29C1F"/>
<path d="M93.7022 48.7353C93.7178 51.6803 93.1255 54.6079 91.9482 57.4131H79.5785C81.0728 46.5656 78.0445 35.6355 70.9221 26.1736C75.4646 26.2157 79.8371 27.4963 83.246 29.7836C90.1838 34.6417 94.0015 41.5606 93.7022 48.7353Z" fill="#F29C1F"/>
<path d="M113.138 50.4601C113.144 52.798 112.806 55.1295 112.128 57.4132H92.5528C93.7659 54.6035 94.3761 51.6712 94.36 48.7215C94.6684 41.5353 90.7349 34.6053 83.5868 29.7394C86.0988 28.5355 89.0212 27.8846 92.0135 27.8623C96.6088 27.949 100.96 29.41 104.077 31.9126C109.546 35.9803 113.138 42.7766 113.138 50.4601Z" fill="#E57E25"/>
<path d="M126.647 52.1781C126.646 53.9322 126.452 55.683 126.069 57.4132H111.78C112.448 55.1207 112.782 52.7804 112.775 50.4336C112.775 42.7208 109.237 35.8987 103.85 31.8154C105.227 31.4328 106.683 31.2379 108.151 31.2395C118.37 31.2395 126.647 40.6097 126.647 52.1781Z" fill="#F29C1F"/>
<path d="M79.8092 57.4131H61.1908C59.5837 46.5656 62.8404 35.6355 70.5 26.1736C78.1596 35.6355 81.4163 46.5656 79.8092 57.4131Z" fill="#E57E25"/>
<path d="M70.1045 27.8622C68.9848 27.8614 68.0195 27.2578 67.795 26.417C67.0823 23.5464 67.9072 20.5758 70.0861 18.1757C72.4669 16.1203 75.9598 15.0273 79.539 15.2191C80.8422 15.2191 81.8982 16.0277 81.8982 17.0256C81.8982 18.0227 80.8422 18.8313 79.539 18.8313C77.3818 18.6701 75.245 19.2678 73.7323 20.4567C72.4485 22.0144 71.9799 23.8846 72.4183 25.6944C72.5435 26.1648 72.4194 26.6526 72.0739 27.0528C71.7284 27.4521 71.1896 27.7307 70.5763 27.8258C70.4208 27.8498 70.2632 27.8622 70.1045 27.8622Z" fill="#527F72"/>
<path d="M49.1385 29.551C47.8334 29.551 46.7751 28.732 46.7751 27.7221C46.7751 22.2964 42.2408 22.2336 42.0471 22.2336C40.741 22.2336 39.6826 21.4146 39.6826 20.4047C39.6826 19.3939 40.741 18.575 42.0471 18.575C45.3163 18.575 51.503 20.4868 51.503 27.7221C51.503 28.732 50.4446 29.551 49.1385 29.551Z" fill="#527F72"/>
<path d="M91.4458 29.5509C90.5089 29.555 89.6508 29.1672 89.2318 28.5498C87.5888 26.1649 87.358 23.3863 88.5922 20.8712C90.0055 18.7987 92.6654 17.3394 95.7679 16.9333C97.0753 16.7104 98.385 17.2996 98.7105 18.2576C99.0359 19.2164 98.2578 20.1892 96.9616 20.4453C95.3264 20.6102 93.8895 21.3262 93.0742 22.3828C92.4706 23.8959 92.6733 25.5226 93.6429 26.9297C94.0246 27.4908 93.9841 28.157 93.537 28.6915C93.09 29.2252 92.2983 29.5509 91.4458 29.5509Z" fill="#527F72"/>
<path d="M105.656 104.53H124.55V109.23C124.542 111.822 122.442 113.922 119.85 113.93H21.1502C18.5577 113.922 16.4578 111.822 16.4503 109.23V104.53H105.656Z" fill="#CB9080"/>
<path d="M11.7503 57.5298H129.25C131.845 57.5298 133.95 59.6339 133.95 62.2297C133.95 64.8255 131.845 66.9296 129.25 66.9296H11.7503C9.15457 66.9296 7.05042 64.8255 7.05042 62.2297C7.05042 59.6339 9.15457 57.5298 11.7503 57.5298Z" fill="#CB9080"/>
<path d="M70.5 99.8301C69.2026 99.8301 68.1495 98.777 68.1495 97.4796V76.3294C68.1495 75.0321 69.2026 73.98 70.5 73.98C71.7973 73.98 72.8505 75.0321 72.8505 76.3294V97.4796C72.8505 98.777 71.7973 99.8301 70.5 99.8301Z" fill="#59474E"/>
<path d="M70.5 130.379C69.2026 130.379 68.1495 129.327 68.1495 128.03V106.879C68.1495 105.582 69.2026 104.53 70.5 104.53C71.7973 104.53 72.8505 105.582 72.8505 106.879V128.03C72.8505 129.327 71.7973 130.379 70.5 130.379Z" fill="#59474E"/>
<path d="M68.1495 100.46C67.3093 100.461 66.5326 100.012 66.112 99.2848L55.5375 80.9681C54.8996 79.8461 55.2868 78.4175 56.4056 77.7721C57.5244 77.1256 58.954 77.5042 59.6081 78.6187L70.1826 96.9343C70.6022 97.6615 70.6022 98.5565 70.1837 99.2837C69.7642 100.01 68.9896 100.458 68.1495 100.46Z" fill="#59474E"/>
<path d="M83.4251 126.915C82.5849 126.916 81.8082 126.469 81.3876 125.741L70.813 107.425C70.174 106.302 70.5613 104.874 71.6801 104.228C72.7989 103.582 74.2296 103.96 74.8826 105.075L85.4582 123.391C85.8778 124.117 85.8778 125.012 85.4582 125.74C85.0387 126.467 84.2641 126.915 83.4251 126.915Z" fill="#59474E"/>
<path d="M66.4272 102.179C66.0152 102.179 65.6096 102.071 65.2525 101.864L46.9369 91.2897C45.8224 90.6367 45.4437 89.206 46.0903 88.0872C46.7357 86.9684 48.1632 86.5811 49.2863 87.2191L67.6019 97.7947C68.5238 98.3261 68.9724 99.4105 68.697 100.438C68.4216 101.465 67.4911 102.179 66.4272 102.179Z" fill="#59474E"/>
<path d="M92.8841 117.455C92.471 117.455 92.0654 117.346 91.7083 117.14L73.3927 106.564C72.2782 105.911 71.9006 104.481 72.5461 103.363C73.1926 102.244 74.6201 101.856 75.7432 102.495L94.0588 113.069C94.9796 113.602 95.4293 114.685 95.1539 115.712C94.8785 116.74 93.9469 117.454 92.8841 117.455Z" fill="#59474E"/>
<path d="M65.8001 104.53H44.6498C43.3525 104.53 42.3004 103.478 42.3004 102.18C42.3004 100.882 43.3525 99.8301 44.6498 99.8301H65.8001C67.0974 99.8301 68.1495 100.882 68.1495 102.18C68.1495 103.478 67.0974 104.53 65.8001 104.53Z" fill="#59474E"/>
<path d="M96.3501 104.53H75.1999C73.9026 104.53 72.8505 103.478 72.8505 102.18C72.8505 100.882 73.9026 99.8301 75.1999 99.8301H96.3501C97.6475 99.8301 98.6996 100.882 98.6996 102.18C98.6996 103.478 97.6475 104.53 96.3501 104.53Z" fill="#59474E"/>
<path d="M48.1159 117.455C47.053 117.454 46.1214 116.74 45.8461 115.712C45.5707 114.685 46.0203 113.602 46.9412 113.069L65.2568 102.495C66.3799 101.856 67.8074 102.244 68.4539 103.363C69.0994 104.481 68.7218 105.911 67.6073 106.564L49.2917 117.14C48.9345 117.346 48.529 117.455 48.1159 117.455Z" fill="#59474E"/>
<path d="M74.5728 102.179C73.5088 102.179 72.5783 101.465 72.3029 100.438C72.0275 99.4105 72.4761 98.3261 73.398 97.7947L91.7137 87.2191C92.4409 86.7931 93.3413 86.7888 94.0728 87.2094C94.8032 87.6289 95.254 88.4088 95.2518 89.2522C95.2497 90.0956 94.7968 90.8723 94.0631 91.2897L75.7475 101.864C75.3903 102.071 74.9848 102.179 74.5728 102.179Z" fill="#59474E"/>
<path d="M57.5749 126.915C56.7358 126.915 55.9613 126.467 55.5418 125.74C55.1222 125.012 55.1222 124.117 55.5418 123.391L66.1174 105.075C66.7704 103.96 68.2011 103.582 69.3199 104.228C70.4387 104.874 70.8259 106.302 70.1869 107.425L59.6124 125.741C59.1918 126.469 58.4151 126.916 57.5749 126.915Z" fill="#59474E"/>
<path d="M72.8505 100.46C72.0103 100.458 71.2358 100.01 70.8162 99.2837C70.3978 98.5565 70.3978 97.6615 70.8173 96.9343L81.3919 78.6187C82.0459 77.5042 83.4756 77.1256 84.5944 77.7721C85.7131 78.4175 86.1004 79.8461 85.4625 80.9681L74.8879 99.2848C74.4673 100.012 73.6906 100.461 72.8505 100.46Z" fill="#59474E"/>
<path d="M23.4996 113.93L12.3517 129.855C11.3222 131.326 11.1953 133.247 12.0247 134.839C12.8541 136.431 14.5 137.431 16.2954 137.43C17.866 137.43 19.3376 136.663 20.238 135.376L35.25 113.93H23.4996Z" fill="#7F5B53"/>
<path d="M70.5 66.9297C51.0322 66.9297 35.25 82.7119 35.25 102.18C35.25 121.647 51.0322 137.43 70.5 137.43C89.9678 137.43 105.75 121.647 105.75 102.18C105.75 82.7119 89.9678 66.9297 70.5 66.9297ZM70.5 128.03C56.2238 128.03 44.6499 116.456 44.6499 102.18C44.6499 87.9035 56.2238 76.3295 70.5 76.3295C84.7762 76.3295 96.3501 87.9035 96.3501 102.18C96.334 116.449 84.7698 128.014 70.5 128.03Z" fill="#CB8252"/>
<path d="M70.5 109.23C66.6069 109.23 63.4496 106.074 63.4496 102.18C63.4496 98.2865 66.6069 95.1292 70.5 95.1292C74.3931 95.1292 77.5504 98.2865 77.5504 102.18C77.5504 106.074 74.3931 109.23 70.5 109.23ZM70.5 99.8302C69.2027 99.8302 68.1495 100.882 68.1495 102.18C68.1495 103.478 69.2027 104.53 70.5 104.53C71.7974 104.53 72.8505 103.478 72.8505 102.18C72.8505 100.882 71.7974 99.8302 70.5 99.8302Z" fill="#2C3E50"/>
</svg>
