<svg width="141" height="146" viewBox="0 0 141 146" fill="none" xmlns="http://www.w3.org/2000/svg">
<path d="M110.235 45.6696C110.235 45.6696 126.987 35.3262 137.624 49.9422C137.624 49.9422 140.382 53.2646 138.262 56.4457C136.175 59.5731 131.518 58.9086 129.2 55.5932C127.108 52.603 122.068 48.8069 110.235 45.6696Z" fill="#88C057"/>
<path d="M110.235 45.6697C110.235 45.6697 120.423 28.4891 107.324 18.3817C107.324 18.3817 103.001 14.334 99.0955 15.7746C95.4632 17.1135 95.3682 22.3885 98.71 24.3833C102.372 26.5705 107.389 32.0335 110.235 45.6697Z" fill="#88C057"/>
<path d="M137.272 50.8414C137.272 50.8414 137.363 50.963 137.482 51.1313C137.831 50.8061 138.169 50.4555 138.476 50.0455C141.305 46.2706 139.038 43.3496 139.038 43.3496C130.641 30.1927 111.098 44.4906 111.098 44.4906C112.039 44.5585 112.919 44.6461 113.77 44.7394C119.358 42.6159 129.815 40.5941 137.272 50.8414Z" fill="#88C057"/>
<path d="M107.325 18.3817C117.43 26.1775 113.679 38.1779 111.435 43.2592C111.439 43.3737 111.447 43.4769 111.451 43.5914C111.451 43.5914 125.398 23.4644 113.562 15.547C113.562 15.547 109.79 12.1864 105.419 14.5008C104.669 14.8981 104.021 15.4127 103.481 15.9938C105.668 16.8336 107.325 18.3817 107.325 18.3817Z" fill="#A4E869"/>
<path d="M131.646 22.0917C126.696 18.7509 120.413 23.7954 120.413 23.7954C119.37 25.0961 118.424 26.4958 117.551 27.9336C116.685 34.5064 112.574 41.6108 110.53 44.8061C110.409 45.25 110.307 45.6388 110.237 45.9187C112.605 44.2617 119.504 39.7785 126.286 38.6178C127.969 37.4556 129.573 36.179 130.97 34.7934C138.456 27.3695 131.646 22.0917 131.646 22.0917Z" fill="#659C35"/>
<path d="M110.235 45.6696C110.235 45.6696 126.987 35.3262 137.624 49.9422C137.624 49.9422 140.382 53.2646 138.262 56.4457C136.175 59.5731 131.518 58.9086 129.2 55.5932C127.108 52.603 122.068 48.8069 110.235 45.6696Z" fill="#A4E869"/>
<path d="M111.173 44.1047C110.792 44.8781 110.532 45.3164 110.532 45.3164C110.532 45.3164 111.168 44.9262 112.259 44.4073C111.905 44.3055 111.548 44.2051 111.173 44.1047Z" fill="#F2681C"/>
<path d="M119.905 53.4019C120.476 51.7449 120.441 50.102 120.084 48.5539C117.534 47.4384 114.402 46.3413 110.532 45.3163C109.594 40.8246 108.42 37.2349 107.138 34.3423C105.369 33.7018 103.435 33.4742 101.478 34.2065C95.3356 36.5054 68.3272 76.9815 63.2766 91.0941C62.8015 92.4217 63.8019 93.4623 65.075 92.9674C78.624 87.7066 117.698 59.798 119.905 53.4019Z" fill="#ED8F20"/>
<path d="M74.3348 79.6707C73.4199 79.2155 72.5309 78.6599 71.692 78.0194C71.0866 77.5557 70.2383 77.6942 69.7958 78.3234C69.3533 78.9525 69.4836 79.8376 70.0876 80.2985C71.0622 81.0436 72.0979 81.6911 73.1647 82.2213C73.3534 82.3146 73.5529 82.3598 73.7497 82.3598C74.256 82.3598 74.742 82.0629 74.9754 81.5554C75.2971 80.8513 75.0107 80.0058 74.3348 79.6707Z" fill="#DD7017"/>
<path d="M116.311 52.7617C113.533 51.6589 110.956 49.6767 108.652 46.8703C108.165 46.2765 107.309 46.2072 106.739 46.7148C106.169 47.2224 106.102 48.1145 106.589 48.7083C109.191 51.878 112.137 54.1317 115.344 55.4055C115.503 55.4677 115.666 55.4988 115.827 55.4988C116.374 55.4988 116.889 55.151 117.096 54.5869C117.363 53.8574 117.011 53.0402 116.311 52.7617Z" fill="#DD7017"/>
<path d="M93.9972 41.6262C94.5252 41.769 94.9487 42.2313 95.0125 42.8336C95.2555 45.141 96.3997 48.1312 98.4127 49.6086C99.0248 50.0582 99.1714 50.9404 98.7384 51.5795C98.4751 51.9697 98.0543 52.1775 97.6281 52.1775C97.358 52.1775 97.0852 52.0941 96.8463 51.9188C94.1303 49.9239 92.7797 46.3385 92.3888 43.6522" fill="#DD7017"/>
<path d="M96.8463 51.9188C97.0838 52.0941 97.3566 52.1775 97.6281 52.1775C98.0543 52.1775 98.4751 51.9697 98.7384 51.5795C99.1701 50.9404 99.0248 50.0596 98.4127 49.6086C96.4011 48.1298 95.2555 45.1395 95.0125 42.8336C94.9487 42.2327 94.5252 41.769 93.9972 41.6262C93.4747 42.2723 92.9399 42.9425 92.3888 43.6508C92.7797 46.3385 94.1303 49.9239 96.8463 51.9188Z" fill="#DD7017"/>
<path d="M104.348 67.9669C101.783 67.5343 98.4181 66.1261 96.5328 63.3423C96.1011 62.7047 96.2477 61.8225 96.8599 61.3715C97.4707 60.9219 98.319 61.0746 98.752 61.7122C100.17 63.806 103.041 65.0007 105.256 65.2538C105.851 65.3217 106.296 65.784 106.418 66.3594" fill="#DD7017"/>
<path d="M105.259 65.2527C103.042 64.9996 100.171 63.8064 98.7543 61.7111C98.3227 61.0735 97.473 60.9194 96.8622 61.3704C96.2487 61.8199 96.1021 62.7022 96.535 63.3412C98.4204 66.125 101.785 67.5332 104.351 67.9658C105.055 67.4243 105.746 66.8899 106.421 66.3597C106.298 65.7829 105.852 65.3205 105.259 65.2527Z" fill="#DD7017"/>
<path d="M83.1846 56.4175C83.7262 56.5504 84.1619 57.0169 84.2271 57.6277C84.3791 59.0769 85.089 60.9488 86.3296 61.8621C86.9418 62.3117 87.0884 63.1939 86.6554 63.8329C86.3907 64.2231 85.9713 64.431 85.5451 64.431C85.275 64.431 85.0021 64.3476 84.7632 64.1723C82.9607 62.8475 81.9943 60.5529 81.6427 58.7079" fill="#DD7017"/>
<path d="M84.7648 64.1723C85.0023 64.3476 85.2752 64.431 85.5466 64.431C85.9728 64.431 86.3922 64.2231 86.6569 63.8329C87.0886 63.1953 86.9433 62.3131 86.3312 61.8621C85.0892 60.9488 84.3807 59.0783 84.2286 57.6277C84.1648 57.0155 83.7291 56.549 83.1862 56.4175C82.6718 57.1739 82.1587 57.9373 81.6443 58.7079C81.9958 60.5529 82.9622 62.8475 84.7648 64.1723Z" fill="#DD7017"/>
<path d="M87.6213 79.9392C85.7794 79.689 83.2181 78.6838 81.8051 76.5956C81.3735 75.9565 81.5187 75.0757 82.1309 74.6247C82.7444 74.1723 83.5914 74.3278 84.023 74.964C84.8999 76.2577 86.6956 76.9957 88.0869 77.154C88.8321 77.2389 89.3696 77.9373 89.2882 78.7135C89.2841 78.7573 89.261 78.7941 89.2529 78.8365" fill="#DD7017"/>
<path d="M88.086 77.1556C86.6947 76.9973 84.8976 76.2579 84.0221 74.9656C83.5905 74.328 82.7449 74.1739 82.13 74.6263C81.5178 75.0759 81.3712 75.9581 81.8042 76.5972C83.2186 78.6854 85.7785 79.6906 87.6205 79.9408C88.1634 79.5775 88.7077 79.2085 89.252 78.8395C89.2601 78.7971 89.2832 78.7603 89.2873 78.7165C89.3701 77.9403 88.8312 77.2405 88.086 77.1556Z" fill="#DD7017"/>
<g clip-path="url(#clip0)">
<path d="M129.266 86.7419C126.679 85.0149 121.82 82.6084 117.151 84.8318C116.702 85.0464 116.19 84.7088 116.19 84.1934V79.7244C116.191 78.6916 115.518 77.8459 114.695 77.8459H112.45C111.627 77.8459 110.954 78.6916 110.954 79.7244V84.4585C110.954 84.9055 110.565 85.2441 110.144 85.1537C108.248 84.7467 103.327 84.1135 98.6202 87.0416C97.976 87.4424 98.3496 88.4941 99.0888 88.3532C101.28 87.9356 104.164 87.6485 106.113 88.45C106.624 88.6593 106.697 89.3871 106.238 89.7005C104.854 90.6419 102.3 92.8064 100.627 96.7863C100.342 97.4637 101.142 98.0706 101.69 97.6004C103.828 95.7661 107.345 93.2808 110.327 93.6815C110.679 93.7288 110.945 94.0275 110.94 94.3967C110.91 96.4813 110.935 103.564 112.588 106.245C112.849 106.668 113.432 106.689 113.716 106.282C114.769 104.775 117.053 100.778 116.959 94.5366C116.953 94.1264 117.269 93.793 117.662 93.8067C119.167 93.8571 122.719 94.2999 125.537 97.166C125.998 97.6362 126.762 97.2302 126.682 96.5634C126.46 94.7385 125.496 91.9787 122.005 89.8383C121.475 89.5133 121.565 88.6866 122.162 88.5341C123.368 88.2259 125.446 87.9325 128.871 88.0503C129.567 88.0724 129.85 87.1321 129.266 86.7419Z" fill="#88C057"/>
<path d="M130.051 88.3531C129.957 88.2847 129.848 88.2416 129.734 88.2269C129.33 88.1753 128.925 88.1269 128.521 88.0701C128.377 88.0554 128.232 88.0439 128.088 88.0291C125.146 87.9786 123.299 88.2458 122.185 88.5277C121.58 88.6812 121.471 89.5069 122.008 89.8361C125.499 91.9764 126.463 94.7363 126.684 96.5601C126.764 97.2269 126 97.6329 125.539 97.1628C122.721 94.2977 119.169 93.8549 117.664 93.8034C117.271 93.7897 116.954 94.1231 116.961 94.5333C117.054 100.775 114.771 104.771 113.718 106.279C113.434 106.686 112.851 106.665 112.59 106.242C110.937 103.561 110.912 96.478 110.942 94.3934C110.947 94.0253 110.681 93.7255 110.329 93.6782C107.347 93.2764 103.83 95.7628 101.692 97.5971C101.144 98.0673 100.344 97.4604 100.629 96.7831C102.3 92.8084 104.849 90.6449 106.235 89.7015C106.696 89.387 106.62 88.656 106.106 88.4498C105.731 88.2994 105.322 88.1879 104.891 88.1091C104.814 88.0943 104.732 88.0933 104.655 88.1049C102.206 88.4519 99.8007 88.9368 97.4661 89.5889C97.3631 89.6173 97.2672 89.6688 97.1854 89.7404C92.0325 94.2062 88.7972 100.636 88.7972 107.785C88.7972 121.269 100.302 132.201 114.492 132.201C128.682 132.201 140.186 121.269 140.186 107.785C140.187 99.8574 136.211 92.8126 130.051 88.3531Z" fill="#D13834"/>
<path d="M94.248 114.275C93.9026 114.275 93.5664 114.091 93.3786 113.76C92.6233 112.432 92.1285 110.964 91.9073 109.399C91.8266 108.824 92.2082 108.29 92.7596 108.206C93.321 108.115 93.8249 108.519 93.9057 109.093C94.0854 110.369 94.5044 111.612 95.1164 112.688C95.4001 113.188 95.2426 113.834 94.7619 114.129C94.6004 114.228 94.4227 114.275 94.248 114.275Z" fill="#ED7161"/>
<path d="M93.0332 105.905C93.01 105.905 92.9857 105.904 92.9625 105.902C92.4051 105.862 91.9861 105.359 92.0244 104.781C92.1194 103.385 92.394 102.029 92.8434 100.748C93.0342 100.202 93.6118 99.9248 94.1389 100.121C94.663 100.32 94.9316 100.925 94.7407 101.471C94.356 102.566 94.1207 103.728 94.0399 104.926C94.0026 105.481 93.5593 105.905 93.0332 105.905Z" fill="#ED7161"/>
</g>
<g clip-path="url(#clip1)">
<path d="M42.4429 79.8231C41.7286 79.0872 40.7143 78.8751 39.8018 79.154C39.5073 78.2736 39.0295 77.4486 38.3533 76.7519C35.9461 74.2719 32.03 74.3307 29.6065 76.8829C28.9731 77.55 28.508 78.3224 28.2046 79.143C26.6697 78.9122 25.0415 79.4198 23.8543 80.6702C22.5086 82.0872 22.0793 84.0829 22.5649 85.8479C21.4286 86.0709 20.3385 86.6431 19.4587 87.5696C17.1864 89.9625 17.1737 93.7868 19.4308 96.1122C19.5996 96.286 19.7789 96.4427 19.9617 96.5896C18.8991 98.8589 19.2551 101.646 21.0463 103.491C22.4434 104.93 24.3818 105.456 26.1949 105.081C26.3504 106.136 26.812 107.146 27.5917 107.949C29.5473 109.964 32.7294 109.916 34.6985 107.843C35.5229 106.975 35.9984 105.889 36.1368 104.773C38.042 105.079 40.0715 104.455 41.5485 102.899C43.1092 101.256 43.6642 98.9798 43.2234 96.9044C44.6348 97.2682 46.2014 96.8643 47.312 95.6948C48.9785 93.9397 48.9873 91.135 47.3325 89.4302C46.9613 89.0478 46.5364 88.758 46.084 88.5508C46.711 86.9423 46.4054 85.046 45.1649 83.7679C44.5776 83.1629 43.858 82.781 43.101 82.6151C43.3794 81.6503 43.1695 80.5716 42.4429 79.8231Z" fill="#88C057"/>
<path d="M35.8191 106.009C35.5734 106.673 35.2112 107.303 34.6978 107.844C32.7287 109.917 29.5466 109.964 27.591 107.95C26.8113 107.146 26.3497 106.137 26.1942 105.082C24.3812 105.456 22.4427 104.931 21.0456 103.492C20.3693 102.795 19.8987 101.963 19.6312 101.076C17.7475 101.587 16.3417 103.365 16.3342 105.474C16.3338 105.66 16.3476 105.841 16.3678 106.021C14.6739 106.653 13.4511 108.34 13.4443 110.308C13.4396 111.843 14.1756 113.186 15.3008 113.979C14.8473 114.629 14.5766 115.423 14.574 116.279C14.5667 118.429 16.2344 120.147 18.2978 120.116C19.1617 120.104 19.9562 119.783 20.5903 119.26C21.4199 120.468 22.7835 121.246 24.3307 121.223C25.9664 121.198 27.4018 120.285 28.2215 118.932C28.7671 119.9 29.7794 120.542 30.9439 120.526C32.6902 120.499 34.1104 119.004 34.1165 117.184C34.1179 116.776 34.0445 116.388 33.9155 116.029C35.0516 115.512 35.8501 114.33 35.8551 112.966C35.8574 112.321 35.6779 111.723 35.3711 111.219C36.0032 110.856 36.4387 110.164 36.4416 109.365C36.4439 108.58 36.0277 107.91 35.4153 107.561C35.6356 107.082 35.757 106.555 35.8191 106.009Z" fill="#659C35"/>
<path d="M53.7683 76.1975C53.5898 76.2 53.4156 76.2173 53.243 76.2421C52.6661 74.488 51.068 73.2439 49.1788 73.2726C47.7052 73.2944 46.4027 74.0857 45.6207 75.2727C45.0049 74.8129 44.248 74.5435 43.4263 74.5564C41.3622 74.5868 39.6836 76.3546 39.6763 78.5055C39.6763 78.6461 39.6949 78.7821 39.7092 78.9181C39.7389 78.9975 39.7757 79.0754 39.8025 79.1548C40.7143 78.8751 41.7293 79.088 42.4437 79.8239C43.1702 80.5724 43.3801 81.6511 43.1003 82.6158C43.8566 82.7826 44.5762 83.163 45.1642 83.7687C46.4047 85.0468 46.7103 86.9431 46.0833 88.5516C46.5357 88.7588 46.9606 89.0486 47.3318 89.431C48.9866 91.1358 48.9778 93.9405 47.3113 95.6956C46.9214 96.1061 46.4732 96.4165 45.9967 96.6387C46.076 96.6434 46.1475 96.6728 46.2268 96.6716C46.8465 96.6621 47.4238 96.4654 47.9134 96.1369C48.251 96.7894 48.9081 97.2311 49.6748 97.2193C50.4281 97.2083 51.0791 96.7621 51.4255 96.1175C52.0276 96.4108 52.6996 96.5751 53.4136 96.5636C55.9539 96.5252 58.0195 94.3499 58.0284 91.7037C58.0305 91.012 57.8892 90.3591 57.6376 89.7685C58.5756 89.0469 59.19 87.8929 59.1946 86.5958C59.199 85.1269 58.4219 83.8603 57.2711 83.2146C57.7663 82.4777 58.0615 81.585 58.0643 80.6234C58.0726 78.1437 56.1493 76.1623 53.7683 76.1975Z" fill="#659C35"/>
<path d="M51.4255 96.1175C51.0783 96.7613 50.4288 97.2076 49.6748 97.2193C49.2265 97.2263 48.8151 97.0777 48.4839 96.8223C48.2989 96.6805 48.0892 96.5769 47.8704 96.5186C47.9916 102.439 51.3966 109.996 51.3966 109.996C48.9993 105.602 45.5398 102.341 43.0432 100.365C42.7481 101.288 42.2515 102.159 41.5471 102.901C40.8611 103.623 40.0534 104.136 39.1969 104.456C44.8848 107.726 51.4279 115.946 51.4279 115.946C44.7164 111.804 38.4267 111.419 35.6966 111.487C35.6762 111.671 35.6779 111.858 35.7288 112.04C35.8118 112.333 35.8555 112.644 35.8551 112.968C35.8509 114.332 35.0509 115.514 33.9155 116.031C34.0445 116.39 34.118 116.778 34.1165 117.186C34.1148 117.672 34.0058 118.133 33.8231 118.551C37.3884 114.796 48.6527 117.881 56.834 125.211C57.4359 125.75 58.339 125.708 58.8971 125.12L62.4475 121.381C62.9943 120.806 63.0359 119.899 62.5492 119.269C59.9632 115.926 48.7964 102.325 54.3847 96.4397C54.0709 96.5144 53.7477 96.5601 53.4143 96.5658C52.7003 96.5743 52.0276 96.4108 51.4255 96.1175Z" fill="#436B1C"/>
<path d="M28.1109 97.127C28.025 97.2174 27.9218 97.2931 27.8029 97.3481C25.3092 98.5025 22.3776 97.3286 21.2693 94.7311C20.1618 92.1344 21.2853 89.0846 23.7818 87.9242C24.2911 87.6885 24.8886 87.9268 25.1141 88.4581C25.3411 88.9893 25.1124 89.6086 24.6017 89.8473C23.1244 90.5311 22.4577 92.3384 23.1141 93.8757C23.7706 95.4144 25.5058 96.1088 26.9816 95.4251C27.4909 95.1894 28.0884 95.4277 28.3139 95.9589C28.4896 96.3677 28.3942 96.8286 28.1109 97.127Z" fill="#659C35"/>
<path d="M53.817 85.7154C53.3881 86.167 52.8788 86.5344 52.3054 86.8002C51.0974 87.3589 49.753 87.3956 48.5187 86.9007C47.9978 86.6924 47.7383 86.0833 47.9389 85.5415C48.1417 84.9959 48.7251 84.7285 49.2438 84.9375C49.9744 85.2301 50.7704 85.2084 51.4863 84.8779C52.2021 84.5458 52.7495 83.9439 53.0311 83.1837C53.312 82.4228 53.2912 81.5936 52.9731 80.8488C52.655 80.1039 52.0786 79.5323 51.3473 79.2404C50.8264 79.0322 50.5669 78.4231 50.7675 77.8812C50.9703 77.3372 51.5522 77.0683 52.0724 77.2773C53.306 77.7715 54.2822 78.7358 54.8193 79.9948C55.3565 81.2538 55.3917 82.6541 54.9165 83.9397C54.6651 84.6143 54.2913 85.2158 53.817 85.7154Z" fill="#88C057"/>
<path d="M42.3191 94.1265C41.1042 95.406 39.2793 95.9876 37.4966 95.4824C36.9581 95.33 36.6402 94.7525 36.7865 94.1916C36.9314 93.6322 37.4873 93.2996 38.025 93.4527C38.7809 93.6663 39.5707 93.5614 40.2505 93.1566C40.9274 92.7519 41.4159 92.0953 41.6217 91.3088C41.8274 90.5222 41.7267 89.6995 41.3374 88.9907C40.9481 88.2834 40.3178 87.7761 39.5634 87.5625C39.0249 87.4101 38.707 86.8326 38.8533 86.2717C38.9989 85.7131 39.554 85.3797 40.0918 85.5328C41.3682 85.8937 42.4323 86.7503 43.0891 87.9462C43.7459 89.1421 43.916 90.5319 43.5689 91.8607C43.3393 92.747 42.8985 93.5163 42.3191 94.1265Z" fill="#659C35"/>
<path d="M35.9521 92.7595C35.4437 93.2949 34.8162 93.721 34.09 93.9891C31.5166 94.9372 28.6831 93.5284 27.7722 90.8488C27.5872 90.3017 27.8604 89.7014 28.387 89.5058C28.9129 89.3124 29.49 89.5992 29.6763 90.1462C30.2152 91.7325 31.8926 92.567 33.4162 92.005C34.9377 91.4422 35.7403 89.6966 35.2007 88.1095C35.0151 87.5632 35.2875 86.9622 35.8156 86.7666C36.3415 86.5732 36.9185 86.8599 37.1049 87.407C37.7584 89.3332 37.2452 91.3978 35.9521 92.7595Z" fill="#659C35"/>
<path d="M34.5837 102.596C34.1101 103.094 33.5381 103.49 32.894 103.757C30.3584 104.808 27.4748 103.515 26.4648 100.873C26.2599 100.335 26.508 99.7256 27.0288 99.5077C27.5468 99.2928 28.1344 99.5564 28.3407 100.096C28.9387 101.659 30.6464 102.425 32.1469 101.803C32.8757 101.5 33.446 100.922 33.7548 100.174C34.0644 99.4243 34.0757 98.5958 33.7861 97.8373C33.5812 97.2993 33.8307 96.6895 34.3501 96.4716C34.8681 96.2567 35.4557 96.5203 35.662 97.0598C36.1521 98.3385 36.1338 99.7398 35.61 101.005C35.3618 101.607 35.0133 102.143 34.5837 102.596Z" fill="#659C35"/>
<path d="M34.6495 86.2057C34.5373 86.3239 34.4193 86.4376 34.295 86.5462C33.2793 87.4288 31.9955 87.846 30.6789 87.7219C30.1231 87.67 29.7142 87.1584 29.7639 86.5795C29.8144 85.9984 30.3063 85.5746 30.8607 85.6265C31.64 85.7001 32.3999 85.4533 33.0012 84.9307C33.6132 84.4044 33.9721 83.672 34.0428 82.8617C34.1882 81.186 32.9972 79.6986 31.3884 79.5472C30.8326 79.4953 30.4237 78.9837 30.4734 78.4048C30.5239 77.8237 31.0158 77.3999 31.5702 77.4518C34.2877 77.707 36.2994 80.219 36.0544 83.0495C35.9487 84.2542 35.4547 85.3578 34.6495 86.2057Z" fill="#659C35"/>
<path d="M25.1899 114.216C24.7546 114.674 24.2304 115.054 23.6277 115.324C21.1203 116.445 18.2042 115.232 17.1273 112.62C16.9067 112.086 17.1448 111.469 17.657 111.238C18.1698 111.009 18.7631 111.256 18.9837 111.79C19.6202 113.336 21.3469 114.054 22.8321 113.39C24.3209 112.726 25.0076 110.927 24.369 109.382C24.1484 108.847 24.3879 108.228 24.8987 108C25.4115 107.771 26.0055 108.017 26.2254 108.552C27.0412 110.537 26.566 112.767 25.1899 114.216Z" fill="#88C057"/>
</g>
<g clip-path="url(#clip2)">
<path d="M60.8248 54.388C58.0133 54.8588 55.3596 54.7526 53.7028 54.5958C52.6028 54.4943 51.5163 54.2446 50.4806 53.858C38.6486 49.4377 36.0426 40.3091 35.5069 35.6267C35.3026 33.8334 35.4447 32.0172 35.9168 30.2784C36.0505 29.7837 36.1938 29.3148 36.3511 28.8747C38.3342 23.2367 41.8086 22.0273 41.8086 22.0273C44.061 20.4277 46.6283 20.6674 48.6354 21.3072C50.2358 21.8194 51.6992 22.7067 52.999 23.8141C56.4413 26.7477 60.9753 29.0126 60.9753 29.0126C63.2509 30.1148 66.0056 32.0713 67.4097 33.1095C68.0748 33.6013 68.7016 34.1466 69.2595 34.7646C74.7521 40.9023 71.8471 46.2148 71.8471 46.2148C69.8697 51.5819 65.1651 53.6704 60.8248 54.388Z" fill="#FCD462"/>
<path d="M60.8248 54.3881C58.0133 54.8588 55.3596 54.7527 53.7028 54.5959C52.6028 54.4944 51.5163 54.2447 50.4806 53.8581C38.6486 49.4378 36.0426 40.3092 35.5069 35.6267C35.3026 33.8335 35.4447 32.0173 35.9168 30.2785C36.0505 29.7838 36.1938 29.3149 36.3511 28.8748C40.0431 37.2918 47.8246 50.7957 60.8248 54.3881Z" fill="#F6C358"/>
<path d="M53.3705 41.5877C53.9936 41.9933 54.8145 41.796 55.2039 41.1469C55.5934 40.4978 55.4039 39.6428 54.7807 39.2371C54.1576 38.8315 53.3367 39.0289 52.9473 39.678C52.5578 40.327 52.7473 41.1821 53.3705 41.5877Z" fill="#DC8744"/>
<path d="M47.9193 32.3494C48.5425 32.7551 49.3633 32.5577 49.7528 31.9086C50.1422 31.2595 49.9527 30.4045 49.3296 29.9989C48.7064 29.5932 47.8855 29.7906 47.4961 30.4397C47.1067 31.0888 47.2961 31.9438 47.9193 32.3494Z" fill="#DC8744"/>
<path d="M38.3639 34.0335C38.9871 34.4391 39.808 34.2418 40.1974 33.5927C40.5868 32.9436 40.3974 32.0886 39.7742 31.6829C39.151 31.2773 38.3302 31.4747 37.9407 32.1238C37.5513 32.7728 37.7408 33.6279 38.3639 34.0335Z" fill="#DC8744"/>
<path d="M59.9593 35.8348C60.5825 36.2404 61.4034 36.043 61.7928 35.394C62.1822 34.7449 61.9927 33.8899 61.3696 33.4842C60.7464 33.0786 59.9255 33.2759 59.5361 33.925C59.1467 34.5741 59.3362 35.4291 59.9593 35.8348Z" fill="#DC8744"/>
<path d="M63.3554 46.4515C63.9786 46.8571 64.7994 46.6597 65.1889 46.0107C65.5783 45.3616 65.3888 44.5065 64.7657 44.1009C64.1425 43.6953 63.3216 43.8926 62.9322 44.5417C62.5428 45.1908 62.7322 46.0458 63.3554 46.4515Z" fill="#DC8744"/>
<path d="M47.1159 47.5589C47.739 47.9645 48.5599 47.7672 48.9493 47.1181C49.3388 46.469 49.1493 45.614 48.5261 45.2083C47.903 44.8027 47.0821 45.0001 46.6927 45.6492C46.3032 46.2982 46.4927 47.1533 47.1159 47.5589Z" fill="#DC8744"/>
</g>
<defs>
<clipPath id="clip0">
<rect width="52.1837" height="54.3548" fill="white" transform="translate(88.4004 77.8459)"/>
</clipPath>
<clipPath id="clip1">
<rect width="58.5163" height="58.4902" fill="white" transform="matrix(0.688588 -0.725153 0.696499 0.717557 0.550781 103.451)"/>
</clipPath>
<clipPath id="clip2">
<rect width="44.9565" height="45.7666" fill="white" transform="matrix(0.838088 0.545535 -0.514475 0.857505 50.3504 0.0144043)"/>
</clipPath>
</defs>
</svg>
